<svg width="376" height="390" viewBox="0 0 376 390" fill="none" xmlns="http://www.w3.org/2000/svg">
<path d="M182.167 0.0327148C184.64 -0.368053 185.598 2.99142 186.239 4.74658C191.676 20.1737 195.031 36.0802 196.468 52.3042C197.828 67.7259 196.469 83.2308 198.229 98.6577C198.63 102.413 199.906 109.527 204.301 109.606C216.369 109.767 236.833 52.7827 242.583 42.314C247.78 32.8036 254.254 24.09 261.926 16.0952C265.202 12.6629 266.88 17.1372 266.401 19.9341C264.245 31.6841 261.364 42.1532 256.411 53.1011C248.499 70.7624 240.109 88.4294 233.635 106.648C232.276 110.409 227.557 124.631 235.551 124.314C241.223 124.074 250.656 113.84 254.495 109.767C262.567 101.293 270.557 92.741 278.39 84.1108C290.859 70.3662 304.286 58.7781 320.187 48.7886C321.947 47.6688 324.906 45.8298 326.026 48.7046C326.104 48.944 326.104 49.1057 326.026 49.2671C324.265 52.6212 322.505 55.3403 320.667 57.4966C302.687 78.7569 284.864 100.173 267.12 121.673C263.443 126.152 260.328 130.387 257.292 134.939C251.776 143.012 258.088 145.57 265.042 143.492C276.63 139.976 286.062 135.741 296.375 131.028C315.713 122.153 335.135 113.522 354.635 105.048C355.755 104.569 356.875 104.174 357.995 103.851C359.911 103.372 361.749 104.809 360.468 106.809C359.51 108.408 358.312 109.845 357.031 111.126C346.885 121.595 335.776 129.668 322.828 136.298C310.041 142.856 297.489 149.809 285.182 157.08C282.547 158.679 270.797 165.153 271.276 169.231C271.677 172.507 280.546 172.663 283.265 172.747C312.994 173.226 340.489 171.387 369.02 169.47C370.457 169.387 371.979 169.47 373.578 169.626C374.296 169.71 374.854 170.429 374.698 171.148V171.304C373.978 173.783 363.588 178.017 361.031 178.981C348.322 184.096 335.374 187.132 321.786 188.809C307.239 190.569 292.458 192.564 278.229 195.923C275.031 196.72 272.556 199.122 274.551 202.554C276.234 205.434 283.427 208.231 287.5 209.507C301.01 213.903 315.234 216.543 329.301 218.298C335.692 219.1 339.932 219.741 342.088 220.22C353.437 222.694 363.984 227.252 373.739 233.804C378.692 237.164 373.817 239.32 370.458 239.32C365.265 239.32 360.15 238.918 355.036 238.122C338.489 235.642 321.947 233.163 305.406 230.606C295.333 229.012 283.823 226.773 274.073 225.414C270.719 224.533 264.562 225.575 265.843 230.289C267.12 235.086 283.744 245.872 288.781 249.153C306.76 260.981 324.744 272.887 342.645 284.793C347.681 288.153 354.473 292.069 358.312 296.783C358.869 297.423 358.791 298.382 358.073 298.939C354.875 301.58 334.973 294.544 330.817 292.867C327.942 291.669 324.104 289.829 319.229 287.111C299.568 276.481 282.224 267.455 267.12 259.939C263.604 258.179 258.89 256.106 254.333 255.861C250.177 255.622 251.937 261.059 252.973 262.976C259.046 274.007 267.521 283.918 276.073 293.189C281.505 299.178 287.02 305.096 292.614 311.012C302.843 321.799 311.155 334.585 317.473 347.773C319.312 351.689 315.234 352.569 312.598 350.892C300.77 343.377 291.577 335.945 282.546 325.476C271.598 312.69 260.729 299.741 249.937 286.793C247.062 283.356 234.193 268.013 229.557 268.731C221.568 270.012 238.348 307.011 241.625 314.767C246.421 326.356 254.651 346.574 266.323 375.345C267.042 377.027 266.723 378.304 265.52 379.101C265.364 379.262 265.125 379.262 264.885 379.184C261.844 378.064 258.172 373.668 256.01 371.189C246.021 359.601 237.708 346.893 231.234 333.07C223.963 317.643 216.369 302.377 208.458 287.351C207.338 285.273 205.182 280.637 202.703 280.001C202.463 279.918 202.302 280.002 202.062 280.158C199.026 282.715 198.869 292.147 198.708 295.986C198.228 314.444 199.504 330.429 201.504 349.054C202.786 361.361 201.666 372.31 198.87 384.46C198.469 386.054 198.229 387.096 197.906 387.653C196.791 390.21 193.593 390.054 192.551 387.497C187.916 376.387 185.442 365.518 184.484 353.21C183.041 333.95 181.843 314.768 179.687 295.585C179.208 291.507 178.489 287.752 177.531 284.398C176.328 280.32 172.734 278.002 169.057 281.278C165.542 284.476 162.025 293.106 159.145 300.142C149.874 322.757 140.603 345.299 131.254 367.914C129.973 371.034 126.937 378.783 124.14 379.101C123.901 379.101 123.739 379.022 123.583 378.861C122.302 377.184 122.619 375.507 122.781 373.507C124.062 360.242 126.619 347.216 130.375 334.429C135.01 319.08 140.604 304.059 145.64 288.872C147.078 284.637 150.593 274.085 147.078 270.09C146.916 269.929 146.677 269.773 146.437 269.773C140.927 269.132 135.088 275.846 132.135 278.96C121.104 290.393 110.713 302.298 101.042 314.845C97.0467 319.96 94.3273 323.398 92.9731 324.918C84.7388 334.189 75.2283 341.382 65.395 348.892C63.4003 350.413 60.3647 349.132 61.4009 346.414C64.4373 338.903 67.6353 332.19 71.1509 326.117C74.9113 319.559 79.1457 314.366 84.979 307.653C94.8904 296.226 104.401 284.398 113.51 272.247C116.39 268.33 125.978 255.784 122.463 251.07C120.062 247.872 112.312 252.429 109.593 254.028C98.4058 260.658 85.4575 268.731 70.7544 278.08C57.6451 286.475 43.4216 293.429 28.0728 299.023C27.3541 299.263 26.6352 299.262 25.8384 299.262C25.599 299.262 25.4372 299.179 25.2759 299.023C21.6821 295.268 45.0151 277.444 48.2964 275.126C64.5983 263.616 79.3066 253.065 92.3325 243.398C95.4471 241.08 107.677 232.205 108.635 227.97C109.677 223.413 104.317 222.215 100.801 222.376C93.2911 222.616 86.3382 223.257 80.104 224.376C59.1665 227.97 35.4266 231.647 8.73389 235.486C7.05704 235.725 5.854 235.325 5.05713 234.367C4.89578 234.205 4.81717 233.965 4.89502 233.726C5.29604 231.648 7.85367 230.45 9.53076 229.648C25.3589 221.419 41.5832 216.064 59.1665 213.267C69.0726 211.746 78.9059 209.908 88.6558 207.83C92.7286 206.949 102.244 204.955 103.52 200.637C105.916 192.648 90.0929 189.851 84.8169 188.57C79.7024 187.372 74.5876 186.252 69.395 185.372C48.4525 181.695 27.4371 178.257 6.4165 175.064C4.49989 174.741 2.66125 174.345 0.900879 173.783C0.739422 173.705 0.582844 173.622 0.421387 173.465C-1.49528 170.429 3.61963 169.309 5.854 168.747C21.281 164.913 35.9892 163.392 51.8901 165.153C70.515 167.231 84.3379 168.83 100.083 168.267C102.161 168.189 104.958 167.231 105.917 165.314C107.437 162.194 101.921 158.038 99.4419 156.361C87.218 148.288 73.7907 141.653 60.4419 135.664C54.5306 132.945 50.6926 131.106 48.7759 130.064C39.0259 124.793 30.1502 118.08 22.1606 110.085C17.3639 105.372 21.442 102.893 26.4731 103.773C33.9106 105.049 41.1821 106.971 48.2134 109.606C56.3643 112.642 64.9166 117.679 73.0728 121.997C85.6196 128.627 100.166 135.742 114.312 139.335C123.104 141.575 121.901 135.34 118.385 130.465C113.672 123.913 108.557 117.679 103.12 111.684C86.979 93.783 70.9106 75.7983 54.9263 57.7358C52.692 55.1787 50.8533 52.6211 49.4106 50.064C48.3745 48.1473 49.1716 45.3506 51.812 45.8296C53.0881 46.0692 55.1665 46.9494 57.9634 48.5483C67.1559 53.8191 74.4264 59.8141 82.6606 67.4858C95.8481 79.9545 109.114 92.3456 122.379 104.731C127.817 109.845 134.051 115.84 140.442 119.278C144.681 121.596 149.317 119.356 148.598 114.08C147.395 105.773 143.323 97.0592 139.885 89.3042C129.896 66.4501 119.984 43.5903 110.156 20.731C109.515 19.2154 107.12 14.4187 109.676 12.981C109.833 12.9028 110.072 12.8195 110.312 12.9028C111.276 13.0591 111.911 13.382 112.234 13.6997C136.609 36.4757 149.317 67.8089 164.661 96.5796C166.02 99.1368 169.697 106.09 172.254 107.21C180.087 110.648 179.765 77.8796 179.765 74.6792C179.765 51.5855 179.927 28.408 180.245 5.30908C180.245 3.23096 180.724 1.55387 181.604 0.355957C181.765 0.194519 181.922 0.0327148 182.167 0.0327148ZM174.89 181.455C160.906 166.351 128.218 176.981 126.859 177.46C124.859 178.101 123.822 180.179 124.458 182.173C125.098 184.173 127.176 185.21 129.176 184.575C129.254 184.491 136.848 182.017 145.801 181.137C153.551 180.418 163.864 180.736 169.296 186.57C180.478 198.632 178.647 220.678 178.645 220.939C178.567 221.975 178.885 223.017 179.604 223.814C180.328 224.533 181.364 225.012 182.406 225.012H192.792C194.869 225.012 196.551 223.335 196.551 221.257V220.856C196.629 218.142 198.469 198.321 199.026 195.445C201.667 188.971 206.937 184.814 214.453 183.376C224.76 181.455 236.833 183.377 245.942 188.33C247.78 189.288 250.099 188.648 251.057 186.809C252.015 184.971 251.374 182.653 249.536 181.695C238.989 175.94 224.921 173.783 213.015 176.023C202.942 177.94 195.432 184.012 191.917 193.043C191.755 193.606 191.437 194.403 190.156 207.83C189.755 212.303 189.437 215.423 189.276 217.58H186.401C186.401 209.746 185.281 192.647 174.89 181.455ZM153.869 191.846C154.348 192.325 154.832 192.804 155.228 193.367C158.108 197.601 156.749 203.596 152.114 206.872C159.067 206.231 164.979 204.236 168.656 201.679C170.494 200.32 170.494 198.158 168.656 196.882C165.302 194.486 160.025 192.648 153.869 191.846ZM236.587 191.846C237.072 192.325 237.551 192.804 237.947 193.367C240.827 197.601 239.468 203.596 234.833 206.872C241.786 206.231 247.697 204.236 251.375 201.679C253.213 200.32 253.213 198.158 251.375 196.882C248.02 194.486 242.744 192.648 236.587 191.846ZM140.921 191.606C133.968 192.247 128.056 194.242 124.379 196.804C122.541 198.08 122.541 200.236 124.379 201.595C127.739 203.996 133.009 205.835 139.166 206.632C138.686 206.231 138.207 205.751 137.806 205.111C134.931 200.876 136.286 194.882 140.921 191.606ZM223.723 191.606C216.77 192.247 210.853 194.242 207.181 196.804C205.343 198.08 205.343 200.236 207.181 201.595C210.535 203.996 215.812 205.835 221.963 206.632C221.406 206.231 220.927 205.751 220.604 205.111C217.729 200.876 219.088 194.882 223.723 191.606Z" fill="currentColor"/>
</svg>
