<svg xmlns="http://www.w3.org/2000/svg" xmlns:xlink="http://www.w3.org/1999/xlink" width="1533" zoomAndPan="magnify" viewBox="0 0 1149.75 763.499972" height="1018" preserveAspectRatio="xMidYMid meet" version="1.0"><defs><g/><clipPath id="20fef1e8f9"><rect x="0" width="924" y="0" height="318"/></clipPath><clipPath id="06459b7ecc"><rect x="0" width="502" y="0" height="130"/></clipPath></defs><path fill="#ff604a" d="M 632.5 173.128906 C 633.457031 176.726562 645.925781 184.816406 649.703125 187.277344 C 663.1875 196.148438 676.675781 205.078125 690.101562 214.007812 C 693.878906 216.527344 698.972656 219.464844 701.851562 223 C 702.269531 223.480469 702.210938 224.199219 701.671875 224.617188 C 699.273438 226.597656 684.347656 221.320312 681.230469 220.0625 C 679.074219 219.164062 676.195312 217.785156 672.539062 215.746094 C 657.792969 207.773438 644.785156 201.003906 633.457031 195.367188 C 630.820312 194.046875 627.285156 192.492188 623.867188 192.308594 C 620.75 192.128906 622.070312 196.207031 622.847656 197.644531 C 627.402344 205.917969 633.757812 213.351562 640.171875 220.304688 C 644.246094 224.796875 648.382812 229.234375 652.578125 233.671875 C 660.25 241.761719 666.484375 251.351562 671.222656 261.242188 C 672.601562 264.179688 669.542969 264.839844 667.566406 263.582031 C 658.695312 257.945312 651.800781 252.371094 645.027344 244.519531 C 636.816406 234.929688 628.664062 225.21875 620.570312 215.507812 C 618.414062 212.929688 608.761719 201.421875 605.285156 201.960938 C 599.292969 202.921875 611.878906 230.671875 614.335938 236.488281 C 617.933594 245.179688 624.105469 260.34375 632.859375 281.921875 C 633.398438 283.183594 633.160156 284.140625 632.257812 284.738281 C 632.140625 284.859375 631.960938 284.859375 631.78125 284.800781 C 629.5 283.960938 626.746094 280.664062 625.125 278.804688 C 617.632812 270.113281 611.398438 260.582031 606.542969 250.214844 C 601.089844 238.644531 595.394531 227.195312 589.460938 215.925781 C 588.621094 214.367188 587.003906 210.890625 585.144531 210.414062 C 584.964844 210.351562 584.84375 210.414062 584.664062 210.53125 C 582.386719 212.449219 582.269531 219.523438 582.148438 222.402344 C 581.789062 236.246094 582.746094 248.234375 584.246094 262.203125 C 585.207031 271.433594 584.367188 279.644531 582.269531 288.757812 C 581.96875 289.953125 581.789062 290.734375 581.546875 291.152344 C 580.710938 293.070312 578.3125 292.953125 577.53125 291.035156 C 574.054688 282.703125 572.199219 274.550781 571.480469 265.320312 C 570.398438 250.875 569.5 236.488281 567.882812 222.101562 C 567.523438 219.042969 566.984375 216.226562 566.265625 213.710938 C 565.363281 210.652344 562.667969 208.914062 559.910156 211.371094 C 557.273438 213.769531 554.636719 220.242188 552.476562 225.519531 C 545.523438 242.480469 538.570312 259.386719 531.558594 276.347656 C 530.597656 278.6875 528.320312 284.5 526.222656 284.738281 C 526.042969 284.738281 525.921875 284.679688 525.804688 284.558594 C 524.84375 283.300781 525.082031 282.042969 525.203125 280.542969 C 526.164062 270.59375 528.082031 260.824219 530.898438 251.234375 C 534.375 239.722656 538.570312 228.457031 542.347656 217.066406 C 543.425781 213.890625 546.0625 205.976562 543.425781 202.980469 C 543.304688 202.859375 543.125 202.742188 542.945312 202.742188 C 538.8125 202.261719 534.433594 207.296875 532.21875 209.632812 C 523.945312 218.207031 516.152344 227.136719 508.898438 236.546875 C 505.902344 240.382812 503.863281 242.960938 502.847656 244.101562 C 496.671875 251.054688 489.539062 256.449219 482.164062 262.082031 C 480.667969 263.222656 478.390625 262.261719 479.167969 260.222656 C 481.445312 254.589844 483.84375 249.554688 486.480469 245 C 489.300781 240.082031 492.476562 236.1875 496.851562 231.152344 C 504.285156 222.582031 511.417969 213.710938 518.25 204.597656 C 520.410156 201.660156 527.601562 192.25 524.964844 188.714844 C 523.164062 186.316406 517.351562 189.734375 515.3125 190.933594 C 506.921875 195.90625 497.210938 201.960938 486.183594 208.972656 C 476.351562 215.269531 465.683594 220.484375 454.171875 224.679688 C 453.632812 224.859375 453.09375 224.859375 452.496094 224.859375 C 452.316406 224.859375 452.195312 224.796875 452.074219 224.679688 C 449.378906 221.863281 466.878906 208.496094 469.339844 206.757812 C 481.566406 198.125 492.597656 190.210938 502.367188 182.960938 C 504.703125 181.222656 513.875 174.566406 514.59375 171.390625 C 515.375 167.972656 511.355469 167.074219 508.71875 167.195312 C 503.085938 167.375 497.871094 167.855469 493.195312 168.695312 C 477.492188 171.390625 459.6875 174.148438 439.667969 177.027344 C 438.410156 177.207031 437.507812 176.90625 436.910156 176.1875 C 436.789062 176.066406 436.730469 175.886719 436.789062 175.707031 C 437.089844 174.148438 439.007812 173.25 440.265625 172.648438 C 452.136719 166.476562 464.304688 162.460938 477.492188 160.363281 C 484.921875 159.222656 492.296875 157.84375 499.609375 156.285156 C 502.664062 155.625 509.800781 154.128906 510.757812 150.890625 C 512.554688 144.898438 500.6875 142.800781 496.730469 141.839844 C 492.894531 140.941406 489.058594 140.101562 485.164062 139.441406 C 469.457031 136.683594 453.695312 134.105469 437.929688 131.710938 C 436.492188 131.46875 435.113281 131.171875 433.792969 130.75 C 433.671875 130.691406 433.554688 130.628906 433.433594 130.511719 C 431.996094 128.234375 435.832031 127.394531 437.507812 126.972656 C 449.078125 124.097656 460.109375 122.957031 472.035156 124.277344 C 486.003906 125.835938 496.371094 127.035156 508.179688 126.613281 C 509.738281 126.554688 511.835938 125.835938 512.554688 124.398438 C 513.695312 122.058594 509.558594 118.941406 507.699219 117.683594 C 498.53125 111.628906 488.460938 106.652344 478.449219 102.160156 C 474.015625 100.121094 471.136719 98.742188 469.699219 97.960938 C 462.386719 94.007812 455.730469 88.972656 449.738281 82.976562 C 446.140625 79.441406 449.199219 77.582031 452.972656 78.242188 C 458.550781 79.199219 464.003906 80.640625 469.277344 82.617188 C 475.390625 84.894531 481.804688 88.671875 487.921875 91.910156 C 497.332031 96.882812 508.242188 102.21875 518.851562 104.914062 C 525.445312 106.59375 524.542969 101.917969 521.90625 98.261719 C 518.371094 93.347656 514.535156 88.671875 510.457031 84.175781 C 498.351562 70.75 486.300781 57.261719 474.3125 43.714844 C 472.636719 41.796875 471.257812 39.878906 470.175781 37.960938 C 469.398438 36.523438 469.996094 34.425781 471.976562 34.785156 C 472.933594 34.964844 474.492188 35.625 476.589844 36.824219 C 483.484375 40.777344 488.9375 45.273438 495.113281 51.027344 C 505.003906 60.378906 514.953125 69.671875 524.902344 78.960938 C 528.980469 82.796875 533.65625 87.292969 538.449219 89.871094 C 541.628906 91.609375 545.105469 89.929688 544.566406 85.972656 C 543.664062 79.742188 540.609375 73.207031 538.03125 67.390625 C 530.539062 50.25 523.105469 33.105469 515.734375 15.960938 C 515.253906 14.824219 513.457031 11.226562 515.375 10.148438 C 515.492188 10.089844 515.671875 10.027344 515.851562 10.089844 C 516.574219 10.207031 517.050781 10.449219 517.292969 10.6875 C 535.574219 27.769531 545.105469 51.269531 556.613281 72.847656 C 557.632812 74.765625 560.390625 79.980469 562.308594 80.820312 C 568.183594 83.398438 567.941406 58.820312 567.941406 56.421875 C 567.941406 39.101562 568.0625 21.71875 568.300781 4.394531 C 568.300781 2.835938 568.660156 1.578125 569.320312 0.679688 C 569.441406 0.558594 569.558594 0.4375 569.742188 0.4375 C 571.597656 0.136719 572.316406 2.65625 572.796875 3.972656 C 576.875 15.542969 579.390625 27.472656 580.46875 39.640625 C 581.488281 51.207031 580.46875 62.835938 581.789062 74.40625 C 582.089844 77.222656 583.046875 82.558594 586.34375 82.617188 C 595.394531 82.738281 610.742188 40 615.054688 32.148438 C 618.953125 25.015625 623.808594 18.480469 629.5625 12.484375 C 632.019531 9.910156 633.277344 13.265625 632.917969 15.363281 C 631.300781 24.175781 629.140625 32.027344 625.425781 40.238281 C 619.492188 53.484375 613.199219 66.734375 608.34375 80.398438 C 607.324219 83.21875 603.785156 93.886719 609.78125 93.648438 C 614.035156 93.46875 621.109375 85.792969 623.988281 82.738281 C 630.042969 76.382812 636.035156 69.96875 641.910156 63.496094 C 651.261719 53.1875 661.332031 44.496094 673.257812 37.003906 C 674.578125 36.164062 676.796875 34.785156 677.636719 36.941406 C 677.695312 37.121094 677.695312 37.242188 677.636719 37.363281 C 676.316406 39.878906 674.996094 41.917969 673.617188 43.535156 C 660.132812 59.480469 646.765625 75.542969 633.457031 91.667969 C 630.699219 95.027344 628.363281 98.203125 626.085938 101.617188 C 621.949219 107.671875 626.683594 109.589844 631.898438 108.03125 C 640.589844 105.394531 647.664062 102.21875 655.398438 98.683594 C 669.902344 92.027344 684.46875 85.554688 699.09375 79.199219 C 699.933594 78.839844 700.773438 78.542969 701.613281 78.300781 C 703.050781 77.941406 704.429688 79.019531 703.46875 80.519531 C 702.75 81.71875 701.851562 82.796875 700.890625 83.757812 C 693.28125 91.609375 684.949219 97.664062 675.238281 102.636719 C 665.648438 107.554688 656.234375 112.769531 647.003906 118.222656 C 645.027344 119.421875 636.214844 124.277344 636.574219 127.335938 C 636.875 129.792969 643.527344 129.910156 645.566406 129.972656 C 667.863281 130.332031 688.484375 128.953125 709.882812 127.515625 C 710.960938 127.453125 712.101562 127.515625 713.300781 127.632812 C 713.839844 127.695312 714.257812 128.234375 714.140625 128.773438 C 714.140625 128.832031 714.140625 128.832031 714.140625 128.890625 C 713.601562 130.75 705.808594 133.925781 703.890625 134.648438 C 694.359375 138.484375 684.648438 140.761719 674.457031 142.019531 C 663.546875 143.339844 652.460938 144.835938 641.789062 147.355469 C 639.390625 147.953125 637.535156 149.753906 639.03125 152.328125 C 640.292969 154.488281 645.6875 156.585938 648.742188 157.542969 C 658.875 160.839844 669.542969 162.820312 680.09375 164.136719 C 684.886719 164.738281 688.066406 165.21875 689.683594 165.578125 C 698.195312 167.433594 706.105469 170.851562 713.421875 175.765625 C 717.136719 178.285156 713.480469 179.902344 710.960938 179.902344 C 707.066406 179.902344 703.230469 179.601562 699.394531 179.003906 C 686.984375 177.144531 674.578125 175.285156 662.171875 173.367188 C 654.617188 172.171875 645.984375 170.492188 638.671875 169.472656 C 636.15625 168.8125 631.539062 169.59375 632.5 173.128906 Z M 632.5 173.128906 " fill-opacity="1" fill-rule="nonzero"/><path fill="#f2f1ee" d="M 577.710938 169.171875 L 569.921875 169.171875 C 569.140625 169.171875 568.363281 168.8125 567.820312 168.273438 C 567.28125 167.675781 567.042969 166.894531 567.101562 166.117188 C 567.101562 165.9375 568.480469 149.390625 560.089844 140.339844 C 556.015625 135.964844 548.28125 135.726562 542.46875 136.265625 C 535.753906 136.925781 530.058594 138.78125 530 138.84375 C 528.5 139.320312 526.941406 138.542969 526.460938 137.042969 C 525.984375 135.546875 526.761719 133.988281 528.261719 133.507812 C 529.28125 133.148438 553.796875 125.175781 564.285156 136.503906 C 572.078125 144.898438 572.917969 157.722656 572.917969 163.597656 L 575.074219 163.597656 C 575.195312 161.980469 575.433594 159.640625 575.734375 156.285156 C 576.695312 146.214844 576.933594 145.617188 577.054688 145.195312 C 579.691406 138.421875 585.324219 133.867188 592.878906 132.429688 C 601.808594 130.75 612.359375 132.367188 620.269531 136.683594 C 621.648438 137.402344 622.128906 139.140625 621.410156 140.519531 C 620.691406 141.898438 618.953125 142.378906 617.574219 141.660156 C 610.742188 137.945312 601.6875 136.503906 593.957031 137.945312 C 588.320312 139.023438 584.367188 142.140625 582.386719 146.996094 C 581.96875 149.152344 580.589844 164.019531 580.53125 166.054688 C 580.53125 166.175781 580.53125 166.234375 580.53125 166.355469 C 580.53125 167.914062 579.269531 169.171875 577.710938 169.171875 Z M 582.269531 147.113281 Z M 582.269531 147.113281 " fill-opacity="1" fill-rule="nonzero"/><path fill="#f2f1ee" d="M 536.472656 154.246094 C 534.316406 151.070312 535.332031 146.574219 538.808594 144.117188 C 533.59375 144.597656 529.160156 146.09375 526.402344 148.015625 C 525.023438 148.972656 525.023438 150.589844 526.402344 151.609375 C 528.921875 153.410156 532.875 154.789062 537.492188 155.386719 C 537.132812 155.085938 536.773438 154.726562 536.472656 154.246094 Z M 536.472656 154.246094 " fill-opacity="1" fill-rule="nonzero"/><path fill="#f2f1ee" d="M 559.609375 148.074219 C 557.09375 146.277344 553.136719 144.898438 548.519531 144.296875 C 548.878906 144.65625 549.242188 145.015625 549.539062 145.4375 C 551.699219 148.613281 550.679688 153.109375 547.203125 155.566406 C 552.417969 155.085938 556.851562 153.589844 559.609375 151.671875 C 560.988281 150.652344 560.988281 149.03125 559.609375 148.074219 Z M 559.609375 148.074219 " fill-opacity="1" fill-rule="nonzero"/><path fill="#f2f1ee" d="M 598.570312 154.246094 C 596.414062 151.070312 597.433594 146.574219 600.910156 144.117188 C 595.695312 144.597656 591.257812 146.09375 588.503906 148.015625 C 587.125 148.972656 587.125 150.589844 588.503906 151.609375 C 591.019531 153.410156 594.976562 154.789062 599.589844 155.386719 C 599.171875 155.085938 598.8125 154.726562 598.570312 154.246094 Z M 598.570312 154.246094 " fill-opacity="1" fill-rule="nonzero"/><path fill="#f2f1ee" d="M 621.648438 148.074219 C 619.132812 146.277344 615.175781 144.898438 610.558594 144.296875 C 610.921875 144.65625 611.28125 145.015625 611.578125 145.4375 C 613.738281 148.613281 612.71875 153.109375 609.242188 155.566406 C 614.457031 155.085938 618.890625 153.589844 621.648438 151.671875 C 623.027344 150.652344 623.027344 149.03125 621.648438 148.074219 Z M 621.648438 148.074219 " fill-opacity="1" fill-rule="nonzero"/><g transform="matrix(1, 0, 0, 1, 117, 330)"><g clip-path="url(#20fef1e8f9)"><g fill="#1d1d1d" fill-opacity="1"><g transform="translate(2.232865, 225.210867)"><g><path d="M 103.609375 -180.46875 L 60.5625 -42.421875 L 106.375 -42.421875 L 106.375 0 L 1.84375 0 L 1.84375 -34.4375 L 48.578125 -177.078125 L 7.078125 -177.078125 L 7.078125 -219.515625 L 103.609375 -219.515625 Z M 103.609375 -180.46875 "/></g></g></g><g fill="#1d1d1d" fill-opacity="1"><g transform="translate(110.44856, 225.210867)"><g><path d="M 69.171875 -132.5 L 69.78125 -132.5 L 83.625 -219.515625 L 136.5 -219.515625 L 95.609375 -80.234375 L 95.609375 0 L 40.890625 0 L 40.890625 -79.9375 L 0 -219.515625 L 52.875 -219.515625 Z M 69.171875 -132.5 "/></g></g></g><g fill="#1d1d1d" fill-opacity="1"><g transform="translate(246.947873, 225.210867)"><g><path d="M 87 -110.375 L 87.625 -110.375 L 87.625 -219.515625 L 135.578125 -219.515625 L 135.578125 0 L 87.625 0 L 55.640625 -122.671875 L 54.71875 -122.671875 L 54.71875 0 L 6.765625 0 L 6.765625 -219.515625 L 54.71875 -219.515625 Z M 87 -110.375 "/></g></g></g><g fill="#1d1d1d" fill-opacity="1"><g transform="translate(389.288438, 225.210867)"><g><path d="M 140.8125 0 L 84.234375 0 L 81.46875 -38.734375 L 60.875 -38.734375 L 58.109375 0 L 1.53125 0 L 29.203125 -219.515625 L 110.671875 -219.515625 Z M 60.875 -77.46875 L 80.546875 -77.46875 L 70.703125 -180.765625 L 70.09375 -180.765625 Z M 60.875 -77.46875 "/></g></g></g><g fill="#1d1d1d" fill-opacity="1"><g transform="translate(531.629004, 225.210867)"><g><path d="M 132.8125 -170.625 L 132.8125 -140.8125 C 132.8125 -123.382812 128.8125 -110.46875 120.8125 -102.0625 C 112.820312 -93.664062 101.65625 -89.46875 87.3125 -89.46875 L 61.484375 -89.46875 L 61.484375 0 L 6.765625 0 L 6.765625 -219.515625 L 82.078125 -219.515625 C 98.273438 -219.515625 110.78125 -215.257812 119.59375 -206.75 C 128.40625 -198.25 132.8125 -186.207031 132.8125 -170.625 Z M 84.859375 -138.96875 L 84.859375 -170.015625 C 84.859375 -178.421875 80.550781 -182.625 71.9375 -182.625 L 61.484375 -182.625 L 61.484375 -126.359375 L 71.9375 -126.359375 C 80.550781 -126.359375 84.859375 -130.5625 84.859375 -138.96875 Z M 84.859375 -138.96875 "/></g></g></g><g fill="#1d1d1d" fill-opacity="1"><g transform="translate(668.128316, 225.210867)"><g><path d="M 66.09375 -224.125 C 107.707031 -224.125 128.515625 -208.441406 128.515625 -177.078125 L 128.515625 -155.25 L 77.78125 -155.25 L 77.78125 -174.3125 C 77.78125 -184.15625 74.09375 -189.078125 66.71875 -189.078125 C 60.363281 -189.078125 57.1875 -184.566406 57.1875 -175.546875 L 57.1875 -164.484375 C 57.1875 -160.378906 58.617188 -156.53125 61.484375 -152.9375 C 64.359375 -149.351562 67.429688 -146.4375 70.703125 -144.1875 C 73.984375 -141.9375 79.210938 -138.65625 86.390625 -134.34375 C 95.203125 -129.019531 102.734375 -123.796875 108.984375 -118.671875 C 115.234375 -113.546875 120.664062 -106.9375 125.28125 -98.84375 C 129.894531 -90.75 132.203125 -81.164062 132.203125 -70.09375 L 132.203125 -50.421875 C 132.203125 -29.722656 126.304688 -15.375 114.515625 -7.375 C 102.734375 0.613281 86.59375 4.609375 66.09375 4.609375 C 43.550781 4.609375 27.664062 0.101562 18.4375 -8.90625 C 9.21875 -17.925781 4.609375 -31.867188 4.609375 -50.734375 L 4.609375 -79.9375 L 57.484375 -79.9375 L 57.484375 -43.65625 C 57.484375 -34.84375 60.660156 -30.4375 67.015625 -30.4375 C 70.503906 -30.4375 73.117188 -31.816406 74.859375 -34.578125 C 76.597656 -37.347656 77.46875 -42.015625 77.46875 -48.578125 L 77.46875 -60.25 C 77.46875 -65.789062 75.984375 -70.710938 73.015625 -75.015625 C 70.046875 -79.316406 66.765625 -82.800781 63.171875 -85.46875 C 59.585938 -88.132812 54.515625 -91.515625 47.953125 -95.609375 C 39.140625 -100.941406 31.8125 -105.960938 25.96875 -110.671875 C 20.132812 -115.390625 15.0625 -121.539062 10.75 -129.125 C 6.445312 -136.707031 4.296875 -145.722656 4.296875 -156.171875 L 4.296875 -170.9375 C 4.296875 -206.394531 24.894531 -224.125 66.09375 -224.125 Z M 66.09375 -224.125 "/></g></g></g><g fill="#1d1d1d" fill-opacity="1"><g transform="translate(804.627628, 225.210867)"><g><path d="M 102.375 -175.234375 L 63.328125 -175.234375 L 63.328125 -134.96875 L 99.921875 -134.96875 L 99.921875 -92.53125 L 63.328125 -92.53125 L 63.328125 -44.265625 L 105.453125 -44.265625 L 105.453125 0 L 6.765625 0 L 6.765625 -219.515625 L 102.375 -219.515625 Z M 102.375 -175.234375 "/></g></g></g></g></g><g transform="matrix(1, 0, 0, 1, 334, 568)"><g clip-path="url(#06459b7ecc)"><g fill="#ff604a" fill-opacity="1"><g transform="translate(1.233634, 90.622693)"><g><path d="M 38.609375 -28.40625 C 38.546875 -26.195312 37.179688 -24.019531 34.515625 -21.875 C 31.847656 -19.726562 28.613281 -18.65625 24.8125 -18.65625 C 23.21875 -18.65625 22.421875 -19.113281 22.421875 -20.03125 C 22.421875 -20.40625 22.695312 -20.679688 23.25 -20.859375 C 26.925781 -23.003906 29.257812 -24.753906 30.25 -26.109375 C 30.363281 -26.347656 30.421875 -26.617188 30.421875 -26.921875 C 30.421875 -27.234375 30.269531 -27.390625 29.96875 -27.390625 C 24.757812 -26.660156 19.796875 -23.8125 15.078125 -18.84375 C 10.359375 -13.875 8 -10.015625 8 -7.265625 C 8 -5.972656 8.488281 -5.328125 9.46875 -5.328125 C 14 -5.328125 18.773438 -6.644531 23.796875 -9.28125 C 28.828125 -11.914062 36.304688 -16.757812 46.234375 -23.8125 C 46.910156 -24.300781 47.9375 -25.035156 49.3125 -26.015625 C 50.695312 -26.992188 51.507812 -27.578125 51.75 -27.765625 C 52.300781 -27.328125 52.578125 -26.800781 52.578125 -26.1875 C 52.578125 -25.582031 52.300781 -25.035156 51.75 -24.546875 C 48.6875 -21.484375 44.71875 -18.050781 39.84375 -14.25 C 34.976562 -10.445312 29.390625 -6.84375 23.078125 -3.4375 C 16.765625 -0.0390625 11.613281 1.65625 7.625 1.65625 C 2.90625 1.65625 0.546875 -0.859375 0.546875 -5.890625 C 0.546875 -9.378906 1.707031 -12.789062 4.03125 -16.125 C 6.363281 -19.46875 9.21875 -22.269531 12.59375 -24.53125 C 15.96875 -26.800781 19.488281 -28.625 23.15625 -30 C 26.832031 -31.382812 29.789062 -32.078125 32.03125 -32.078125 C 34.269531 -32.078125 35.878906 -31.769531 36.859375 -31.15625 C 37.835938 -30.550781 38.359375 -29.941406 38.421875 -29.328125 Z M 38.609375 -28.40625 "/></g></g></g><g fill="#ff604a" fill-opacity="1"><g transform="translate(36.250906, 90.622693)"><g><path d="M 3.40625 -17.1875 C 6.769531 -19.519531 10.289062 -22.035156 13.96875 -24.734375 C 12.007812 -26.078125 10.753906 -27.390625 10.203125 -28.671875 C 10.015625 -29.109375 9.921875 -29.414062 9.921875 -29.59375 C 9.921875 -30.820312 10.316406 -31.632812 11.109375 -32.03125 C 11.910156 -32.425781 13.203125 -32.625 14.984375 -32.625 C 15.660156 -32.625 17.648438 -31.796875 20.953125 -30.140625 C 24.265625 -28.492188 26.363281 -27.671875 27.25 -27.671875 C 28.144531 -27.671875 29.390625 -27.929688 30.984375 -28.453125 C 32.578125 -28.972656 33.847656 -29.234375 34.796875 -29.234375 C 35.742188 -29.234375 36.429688 -29.019531 36.859375 -28.59375 C 38.390625 -26.5625 39.15625 -25.332031 39.15625 -24.90625 C 39.15625 -24.476562 38.957031 -24.125 38.5625 -23.84375 C 38.164062 -23.570312 36.910156 -22.703125 34.796875 -21.234375 C 32.679688 -19.765625 30.609375 -18.265625 28.578125 -16.734375 C 26.554688 -15.203125 24.65625 -13.484375 22.875 -11.578125 C 21.101562 -9.679688 20.21875 -8.148438 20.21875 -6.984375 C 20.21875 -6.796875 20.375 -6.703125 20.6875 -6.703125 C 23.988281 -6.703125 35.140625 -13.414062 54.140625 -26.84375 C 54.566406 -26.84375 54.78125 -26.457031 54.78125 -25.6875 C 54.78125 -24.925781 52.359375 -22.289062 47.515625 -17.78125 C 42.679688 -13.28125 37.210938 -8.867188 31.109375 -4.546875 C 25.015625 -0.222656 20.585938 1.9375 17.828125 1.9375 C 13.535156 1.9375 11.390625 -0.207031 11.390625 -4.5 C 11.390625 -6.832031 12.171875 -9.085938 13.734375 -11.265625 C 15.304688 -13.441406 18.601562 -16.363281 23.625 -20.03125 C 22.582031 -20.03125 21.171875 -20.289062 19.390625 -20.8125 C 17.617188 -21.34375 16.488281 -21.972656 16 -22.703125 C 14.40625 -21.296875 11.644531 -18.9375 7.71875 -15.625 C 6.800781 -14.945312 5.609375 -14.609375 4.140625 -14.609375 C 2.671875 -14.609375 1.9375 -14.835938 1.9375 -15.296875 C 1.9375 -15.765625 2.425781 -16.394531 3.40625 -17.1875 Z M 3.40625 -17.1875 "/></g></g></g><g fill="#ff604a" fill-opacity="1"><g transform="translate(74.393069, 90.622693)"><g><path d="M 28.5 -27.765625 C 26.90625 -27.765625 24.207031 -26.125 20.40625 -22.84375 C 16.601562 -19.5625 14.703125 -17.554688 14.703125 -16.828125 C 14.703125 -16.703125 14.796875 -16.640625 14.984375 -16.640625 C 16.328125 -16.640625 19.003906 -18.140625 23.015625 -21.140625 C 27.035156 -24.140625 29.046875 -26.191406 29.046875 -27.296875 C 29.046875 -27.609375 28.863281 -27.765625 28.5 -27.765625 Z M 8.921875 1.65625 C 4.203125 1.65625 1.84375 -1.222656 1.84375 -6.984375 C 1.84375 -10.597656 3.421875 -14.441406 6.578125 -18.515625 C 9.734375 -22.597656 13.453125 -25.941406 17.734375 -28.546875 C 22.023438 -31.148438 25.828125 -32.453125 29.140625 -32.453125 C 30.609375 -32.453125 31.96875 -31.867188 33.21875 -30.703125 C 34.476562 -29.535156 35.109375 -28.398438 35.109375 -27.296875 C 35.109375 -25.273438 33.664062 -22.992188 30.78125 -20.453125 C 27.90625 -17.910156 24.890625 -15.859375 21.734375 -14.296875 C 18.578125 -12.734375 16.492188 -11.953125 15.484375 -11.953125 C 14.472656 -11.953125 13.722656 -12.410156 13.234375 -13.328125 C 12.992188 -13.515625 12.65625 -13.609375 12.21875 -13.609375 C 11.789062 -13.609375 11.085938 -12.796875 10.109375 -11.171875 C 9.128906 -9.546875 8.640625 -8.226562 8.640625 -7.21875 C 8.640625 -6.207031 9.007812 -5.578125 9.75 -5.328125 C 14.40625 -5.328125 19.457031 -6.691406 24.90625 -9.421875 C 30.363281 -12.148438 37.90625 -16.945312 47.53125 -23.8125 C 48.195312 -24.300781 49.21875 -25.035156 50.59375 -26.015625 C 51.976562 -26.992188 52.789062 -27.578125 53.03125 -27.765625 C 53.582031 -27.328125 53.859375 -26.800781 53.859375 -26.1875 C 53.859375 -25.582031 53.582031 -25.035156 53.03125 -24.546875 C 49.96875 -21.484375 46 -18.050781 41.125 -14.25 C 36.257812 -10.445312 30.671875 -6.84375 24.359375 -3.4375 C 18.046875 -0.0390625 12.898438 1.65625 8.921875 1.65625 Z M 8.921875 1.65625 "/></g></g></g><g fill="#ff604a" fill-opacity="1"><g transform="translate(107.847873, 90.622693)"><g><path d="M 16.359375 -3.859375 L 17.09375 -9.75 C 17.09375 -9.925781 17.046875 -10.015625 16.953125 -10.015625 C 16.867188 -10.015625 16.703125 -9.894531 16.453125 -9.65625 C 15.660156 -8.789062 14.648438 -7.726562 13.421875 -6.46875 C 12.191406 -5.21875 10.09375 -3.535156 7.125 -1.421875 C 4.15625 0.691406 1.75 1.75 -0.09375 1.75 C -0.394531 1.6875 -0.773438 1.578125 -1.234375 1.421875 C -1.703125 1.265625 -2.300781 0.757812 -3.03125 -0.09375 C -3.769531 -0.945312 -4.140625 -2.171875 -4.140625 -3.765625 C -4.140625 -5.359375 -2.925781 -7.796875 -0.5 -11.078125 C 1.914062 -14.359375 4.804688 -17.578125 8.171875 -20.734375 C 11.546875 -23.890625 15.300781 -26.628906 19.4375 -28.953125 C 23.570312 -31.285156 27.175781 -32.453125 30.25 -32.453125 C 31.40625 -32.390625 32.320312 -31.5625 33 -29.96875 C 33.613281 -30.582031 34.164062 -30.890625 34.65625 -30.890625 C 35.144531 -30.890625 35.726562 -30.519531 36.40625 -29.78125 C 36.769531 -29.71875 37.132812 -29.515625 37.5 -29.171875 C 37.875 -28.835938 38.0625 -28.363281 38.0625 -27.75 C 38.0625 -27.144531 37.628906 -26.472656 36.765625 -25.734375 C 35.484375 -24.140625 33.984375 -22.332031 32.265625 -20.3125 C 30.546875 -18.289062 29.316406 -16.832031 28.578125 -15.9375 C 27.847656 -15.050781 27.085938 -14.0625 26.296875 -12.96875 C 24.941406 -11.0625 24.203125 -9.523438 24.078125 -8.359375 C 30.328125 -11.367188 40.164062 -17.835938 53.59375 -27.765625 C 54.144531 -27.328125 54.421875 -26.800781 54.421875 -26.1875 C 54.421875 -25.582031 54.175781 -25.0625 53.6875 -24.625 C 53.195312 -24.195312 52.597656 -23.675781 51.890625 -23.0625 C 51.179688 -22.457031 49.785156 -21.265625 47.703125 -19.484375 C 45.617188 -17.710938 43.613281 -16.015625 41.6875 -14.390625 C 39.757812 -12.765625 37.550781 -10.953125 35.0625 -8.953125 C 32.582031 -6.960938 30.363281 -5.265625 28.40625 -3.859375 C 23.6875 -0.492188 20.742188 1.1875 19.578125 1.1875 C 18.410156 1.1875 17.582031 0.816406 17.09375 0.078125 C 16.601562 -0.648438 16.359375 -1.960938 16.359375 -3.859375 Z M 6.984375 -7.71875 C 7.722656 -7.71875 9.972656 -9.21875 13.734375 -12.21875 C 17.503906 -15.226562 21.078125 -18.234375 24.453125 -21.234375 L 29.59375 -25.734375 C 29.84375 -25.984375 29.96875 -26.148438 29.96875 -26.234375 C 29.96875 -26.328125 29.875 -26.375 29.6875 -26.375 C 27.363281 -26.375 24.332031 -25.039062 20.59375 -22.375 C 16.851562 -19.71875 13.617188 -16.898438 10.890625 -13.921875 C 8.160156 -10.953125 6.796875 -8.945312 6.796875 -7.90625 C 6.796875 -7.78125 6.859375 -7.71875 6.984375 -7.71875 Z M 6.984375 -7.71875 "/></g></g></g><g fill="#ff604a" fill-opacity="1"><g transform="translate(143.692332, 90.622693)"><g><path d="M 42.1875 -42.46875 L 46.875 -42.5625 C 52.945312 -42.5625 57.359375 -41.703125 60.109375 -39.984375 C 61.460938 -39.554688 62.140625 -39.003906 62.140625 -38.328125 C 62.140625 -37.835938 61.539062 -37.5 60.34375 -37.3125 C 59.144531 -37.132812 55.003906 -36.660156 47.921875 -35.890625 C 40.847656 -35.128906 36 -34.6875 33.375 -34.5625 C 32.207031 -34.5 29.523438 -32.472656 25.328125 -28.484375 C 21.128906 -24.503906 17.128906 -20.125 13.328125 -15.34375 C 9.523438 -10.570312 7.625 -7.234375 7.625 -5.328125 C 7.625 -5.023438 7.773438 -4.765625 8.078125 -4.546875 C 8.390625 -4.335938 8.773438 -4.234375 9.234375 -4.234375 C 9.691406 -4.234375 10.410156 -4.414062 11.390625 -4.78125 C 23.035156 -11.644531 34.34375 -19.148438 45.3125 -27.296875 C 45.863281 -26.867188 46.140625 -26.347656 46.140625 -25.734375 C 46.140625 -25.117188 45.832031 -24.519531 45.21875 -23.9375 C 44.613281 -23.363281 43.710938 -22.523438 42.515625 -21.421875 C 41.316406 -20.316406 39.09375 -18.320312 35.84375 -15.4375 C 32.601562 -12.5625 29.539062 -9.988281 26.65625 -7.71875 C 18.9375 -1.46875 13.546875 2.144531 10.484375 3.125 C 9.378906 3.425781 8.078125 3.578125 6.578125 3.578125 C 5.078125 3.578125 3.695312 2.8125 2.4375 1.28125 C 1.175781 -0.25 0.546875 -2.332031 0.546875 -4.96875 C 0.546875 -7.601562 2.242188 -11.398438 5.640625 -16.359375 C 9.046875 -21.328125 13.691406 -26.414062 19.578125 -31.625 C 20.128906 -32.050781 20.40625 -32.445312 20.40625 -32.8125 C 20.40625 -33.1875 19.757812 -33.375 18.46875 -33.375 L 12.6875 -33.1875 C 4.53125 -33.1875 0.332031 -34.101562 0.09375 -35.9375 C -1.800781 -36.3125 -2.75 -36.863281 -2.75 -37.59375 C -2.75 -37.84375 -2.625 -37.984375 -2.375 -38.015625 C -2.132812 -38.046875 -1.921875 -38.070312 -1.734375 -38.09375 C -1.554688 -38.125 -1.253906 -38.171875 -0.828125 -38.234375 C -0.398438 -38.296875 2.984375 -38.785156 9.328125 -39.703125 C 15.671875 -40.628906 22.890625 -41.398438 30.984375 -42.015625 L 37.3125 -50.46875 C 37.6875 -51.195312 38.972656 -51.5625 41.171875 -51.5625 C 43.378906 -51.5625 44.484375 -51.101562 44.484375 -50.1875 C 44.484375 -49.882812 44.238281 -49.332031 43.75 -48.53125 L 41.453125 -45.3125 C 41.148438 -44.332031 40.96875 -43.597656 40.90625 -43.109375 C 40.90625 -42.679688 41.332031 -42.46875 42.1875 -42.46875 Z M 42.1875 -42.46875 "/></g></g></g><g fill="#ff604a" fill-opacity="1"><g transform="translate(172.459776, 90.622693)"><g><path d="M 32.265625 -45.5 C 32.878906 -45.5 33.273438 -45.378906 33.453125 -45.140625 C 34.316406 -44.097656 34.75 -43.253906 34.75 -42.609375 C 34.75 -41.960938 34.5625 -41.410156 34.1875 -40.953125 C 33.820312 -40.492188 33.378906 -39.972656 32.859375 -39.390625 C 32.335938 -38.804688 31.296875 -38.007812 29.734375 -37 C 28.171875 -35.988281 26.65625 -35.484375 25.1875 -35.484375 C 24.082031 -35.660156 23.53125 -36.332031 23.53125 -37.5 C 23.53125 -39.34375 24.632812 -41.132812 26.84375 -42.875 C 29.050781 -44.625 30.859375 -45.5 32.265625 -45.5 Z M 10.203125 -9.28125 C 9.710938 -8.425781 9.46875 -7.660156 9.46875 -6.984375 C 9.46875 -6.304688 9.835938 -5.96875 10.578125 -5.96875 C 11.003906 -5.96875 11.738281 -6.15625 12.78125 -6.53125 C 24.238281 -12.53125 35.453125 -19.609375 46.421875 -27.765625 C 46.972656 -27.328125 47.25 -26.800781 47.25 -26.1875 C 47.25 -25.582031 46.941406 -25.003906 46.328125 -24.453125 C 45.710938 -23.898438 44.835938 -23.101562 43.703125 -22.0625 C 42.578125 -21.019531 40.421875 -19.148438 37.234375 -16.453125 C 34.046875 -13.753906 31.070312 -11.300781 28.3125 -9.09375 C 21.082031 -3.28125 15.75 0.144531 12.3125 1.1875 C 11.207031 1.5 10.015625 1.65625 8.734375 1.65625 C 4.015625 1.65625 1.65625 -0.859375 1.65625 -5.890625 C 1.65625 -7.847656 2.726562 -10.648438 4.875 -14.296875 C 7.019531 -17.941406 9.222656 -21.15625 11.484375 -23.9375 C 13.753906 -26.726562 15.257812 -28.28125 16 -28.59375 C 17.101562 -29.257812 18.296875 -29.59375 19.578125 -29.59375 C 20.867188 -29.59375 22.09375 -29.347656 23.25 -28.859375 C 23.625 -28.679688 23.8125 -28.4375 23.8125 -28.125 C 23.8125 -27.820312 23.519531 -27.363281 22.9375 -26.75 C 22.351562 -26.132812 21.460938 -25.179688 20.265625 -23.890625 C 19.066406 -22.609375 17.285156 -20.390625 14.921875 -17.234375 C 12.566406 -14.078125 10.992188 -11.425781 10.203125 -9.28125 Z M 10.203125 -9.28125 "/></g></g></g><g fill="#ff604a" fill-opacity="1"><g transform="translate(200.032415, 90.622693)"><g><path d="M 15.265625 -28.125 C 16.484375 -29.59375 17.429688 -30.328125 18.109375 -30.328125 C 18.785156 -30.328125 19.613281 -30.160156 20.59375 -29.828125 C 21.570312 -29.492188 22.0625 -29.003906 22.0625 -28.359375 C 22.0625 -27.710938 21.753906 -27.082031 21.140625 -26.46875 C 14.765625 -19.851562 10.140625 -13.878906 7.265625 -8.546875 C 6.710938 -7.378906 6.4375 -6.519531 6.4375 -5.96875 C 6.4375 -5.414062 6.585938 -5.140625 6.890625 -5.140625 C 8.054688 -5.140625 10.582031 -6.828125 14.46875 -10.203125 C 18.363281 -13.578125 22.195312 -17.664062 25.96875 -22.46875 C 29.738281 -27.28125 31.773438 -31.3125 32.078125 -34.5625 C 32.078125 -35.601562 32.234375 -36.125 32.546875 -36.125 C 32.722656 -36.125 32.9375 -35.878906 33.1875 -35.390625 C 34.53125 -33.179688 35.203125 -31.21875 35.203125 -29.5 C 35.203125 -26.257812 33.148438 -22.125 29.046875 -17.09375 C 24.941406 -12.070312 20.300781 -7.707031 15.125 -4 C 9.945312 -0.289062 5.804688 1.5625 2.703125 1.5625 C -0.390625 1.5625 -1.9375 0.03125 -1.9375 -3.03125 C -1.9375 -4.5 -1.335938 -6.382812 -0.140625 -8.6875 C 1.054688 -10.988281 2.484375 -13.238281 4.140625 -15.4375 C 7.566406 -19.914062 10.660156 -23.535156 13.421875 -26.296875 Z M 15.265625 -28.125 "/></g></g></g><g fill="#ff604a" fill-opacity="1"><g transform="translate(226.685963, 90.622693)"><g><path d="M 28.5 -27.765625 C 26.90625 -27.765625 24.207031 -26.125 20.40625 -22.84375 C 16.601562 -19.5625 14.703125 -17.554688 14.703125 -16.828125 C 14.703125 -16.703125 14.796875 -16.640625 14.984375 -16.640625 C 16.328125 -16.640625 19.003906 -18.140625 23.015625 -21.140625 C 27.035156 -24.140625 29.046875 -26.191406 29.046875 -27.296875 C 29.046875 -27.609375 28.863281 -27.765625 28.5 -27.765625 Z M 8.921875 1.65625 C 4.203125 1.65625 1.84375 -1.222656 1.84375 -6.984375 C 1.84375 -10.597656 3.421875 -14.441406 6.578125 -18.515625 C 9.734375 -22.597656 13.453125 -25.941406 17.734375 -28.546875 C 22.023438 -31.148438 25.828125 -32.453125 29.140625 -32.453125 C 30.609375 -32.453125 31.96875 -31.867188 33.21875 -30.703125 C 34.476562 -29.535156 35.109375 -28.398438 35.109375 -27.296875 C 35.109375 -25.273438 33.664062 -22.992188 30.78125 -20.453125 C 27.90625 -17.910156 24.890625 -15.859375 21.734375 -14.296875 C 18.578125 -12.734375 16.492188 -11.953125 15.484375 -11.953125 C 14.472656 -11.953125 13.722656 -12.410156 13.234375 -13.328125 C 12.992188 -13.515625 12.65625 -13.609375 12.21875 -13.609375 C 11.789062 -13.609375 11.085938 -12.796875 10.109375 -11.171875 C 9.128906 -9.546875 8.640625 -8.226562 8.640625 -7.21875 C 8.640625 -6.207031 9.007812 -5.578125 9.75 -5.328125 C 14.40625 -5.328125 19.457031 -6.691406 24.90625 -9.421875 C 30.363281 -12.148438 37.90625 -16.945312 47.53125 -23.8125 C 48.195312 -24.300781 49.21875 -25.035156 50.59375 -26.015625 C 51.976562 -26.992188 52.789062 -27.578125 53.03125 -27.765625 C 53.582031 -27.328125 53.859375 -26.800781 53.859375 -26.1875 C 53.859375 -25.582031 53.582031 -25.035156 53.03125 -24.546875 C 49.96875 -21.484375 46 -18.050781 41.125 -14.25 C 36.257812 -10.445312 30.671875 -6.84375 24.359375 -3.4375 C 18.046875 -0.0390625 12.898438 1.65625 8.921875 1.65625 Z M 8.921875 1.65625 "/></g></g></g><g fill="#ff604a" fill-opacity="1"><g transform="translate(260.140767, 90.622693)"><g/></g></g><g fill="#ff604a" fill-opacity="1"><g transform="translate(283.117951, 90.622693)"><g><path d="M 10.890625 -6.703125 C 13.003906 -6.703125 14.960938 -8.003906 16.765625 -10.609375 C 18.578125 -13.222656 19.847656 -15.859375 20.578125 -18.515625 C 21.316406 -21.179688 21.6875 -23.3125 21.6875 -24.90625 C 21.6875 -25.332031 21.363281 -25.546875 20.71875 -25.546875 C 20.082031 -25.546875 19.332031 -25.210938 18.46875 -24.546875 L 6.4375 -15.265625 C 5.570312 -14.773438 4.585938 -14.53125 3.484375 -14.53125 C 2.390625 -14.53125 1.84375 -14.925781 1.84375 -15.71875 C 1.84375 -16.269531 1.914062 -16.632812 2.0625 -16.8125 C 2.21875 -17 2.664062 -17.304688 3.40625 -17.734375 C 7.9375 -20.859375 14.125 -25.945312 21.96875 -33 C 22.882812 -34.226562 23.707031 -34.84375 24.4375 -34.84375 C 25.175781 -34.84375 26.40625 -34.609375 28.125 -34.140625 C 29.84375 -33.679688 30.703125 -33.148438 30.703125 -32.546875 C 30.703125 -28.867188 30.363281 -25.523438 29.6875 -22.515625 C 29.007812 -19.515625 28.316406 -17.234375 27.609375 -15.671875 C 26.910156 -14.109375 26.5625 -13.265625 26.5625 -13.140625 C 26.5625 -13.023438 26.625 -12.96875 26.75 -12.96875 C 26.875 -12.96875 27.117188 -13.054688 27.484375 -13.234375 C 32.078125 -15.566406 37.929688 -19.367188 45.046875 -24.640625 L 47.25 -26.296875 C 47.800781 -25.859375 48.078125 -25.332031 48.078125 -24.71875 C 48.078125 -24.113281 47.800781 -23.566406 47.25 -23.078125 C 47.125 -23.078125 45.546875 -21.785156 42.515625 -19.203125 C 39.484375 -16.628906 36.113281 -13.828125 32.40625 -10.796875 C 28.695312 -7.765625 24.726562 -4.992188 20.5 -2.484375 C 16.269531 0.0234375 12.988281 1.28125 10.65625 1.28125 C 4.894531 1.28125 2.015625 -2.175781 2.015625 -9.09375 C 2.015625 -9.644531 2.242188 -10.148438 2.703125 -10.609375 C 3.171875 -11.078125 3.769531 -11.3125 4.5 -11.3125 C 4.5 -11 4.664062 -10.519531 5 -9.875 C 5.34375 -9.238281 5.695312 -8.703125 6.0625 -8.265625 C 7.164062 -7.222656 8.773438 -6.703125 10.890625 -6.703125 Z M 10.890625 -6.703125 "/></g></g></g><g fill="#ff604a" fill-opacity="1"><g transform="translate(315.102237, 90.622693)"><g><path d="M 42.1875 -42.46875 L 46.875 -42.5625 C 52.945312 -42.5625 57.359375 -41.703125 60.109375 -39.984375 C 61.460938 -39.554688 62.140625 -39.003906 62.140625 -38.328125 C 62.140625 -37.835938 61.539062 -37.5 60.34375 -37.3125 C 59.144531 -37.132812 55.003906 -36.660156 47.921875 -35.890625 C 40.847656 -35.128906 36 -34.6875 33.375 -34.5625 C 32.207031 -34.5 29.523438 -32.472656 25.328125 -28.484375 C 21.128906 -24.503906 17.128906 -20.125 13.328125 -15.34375 C 9.523438 -10.570312 7.625 -7.234375 7.625 -5.328125 C 7.625 -5.023438 7.773438 -4.765625 8.078125 -4.546875 C 8.390625 -4.335938 8.773438 -4.234375 9.234375 -4.234375 C 9.691406 -4.234375 10.410156 -4.414062 11.390625 -4.78125 C 23.035156 -11.644531 34.34375 -19.148438 45.3125 -27.296875 C 45.863281 -26.867188 46.140625 -26.347656 46.140625 -25.734375 C 46.140625 -25.117188 45.832031 -24.519531 45.21875 -23.9375 C 44.613281 -23.363281 43.710938 -22.523438 42.515625 -21.421875 C 41.316406 -20.316406 39.09375 -18.320312 35.84375 -15.4375 C 32.601562 -12.5625 29.539062 -9.988281 26.65625 -7.71875 C 18.9375 -1.46875 13.546875 2.144531 10.484375 3.125 C 9.378906 3.425781 8.078125 3.578125 6.578125 3.578125 C 5.078125 3.578125 3.695312 2.8125 2.4375 1.28125 C 1.175781 -0.25 0.546875 -2.332031 0.546875 -4.96875 C 0.546875 -7.601562 2.242188 -11.398438 5.640625 -16.359375 C 9.046875 -21.328125 13.691406 -26.414062 19.578125 -31.625 C 20.128906 -32.050781 20.40625 -32.445312 20.40625 -32.8125 C 20.40625 -33.1875 19.757812 -33.375 18.46875 -33.375 L 12.6875 -33.1875 C 4.53125 -33.1875 0.332031 -34.101562 0.09375 -35.9375 C -1.800781 -36.3125 -2.75 -36.863281 -2.75 -37.59375 C -2.75 -37.84375 -2.625 -37.984375 -2.375 -38.015625 C -2.132812 -38.046875 -1.921875 -38.070312 -1.734375 -38.09375 C -1.554688 -38.125 -1.253906 -38.171875 -0.828125 -38.234375 C -0.398438 -38.296875 2.984375 -38.785156 9.328125 -39.703125 C 15.671875 -40.628906 22.890625 -41.398438 30.984375 -42.015625 L 37.3125 -50.46875 C 37.6875 -51.195312 38.972656 -51.5625 41.171875 -51.5625 C 43.378906 -51.5625 44.484375 -51.101562 44.484375 -50.1875 C 44.484375 -49.882812 44.238281 -49.332031 43.75 -48.53125 L 41.453125 -45.3125 C 41.148438 -44.332031 40.96875 -43.597656 40.90625 -43.109375 C 40.90625 -42.679688 41.332031 -42.46875 42.1875 -42.46875 Z M 42.1875 -42.46875 "/></g></g></g><g fill="#ff604a" fill-opacity="1"><g transform="translate(343.869681, 90.622693)"><g><path d="M 24.265625 -8.1875 C 33.398438 -13.082031 43.453125 -19.609375 54.421875 -27.765625 C 54.972656 -27.328125 55.25 -26.800781 55.25 -26.1875 C 55.25 -25.582031 54.941406 -25.003906 54.328125 -24.453125 C 53.710938 -23.898438 52.835938 -23.101562 51.703125 -22.0625 C 50.566406 -21.019531 48.40625 -19.148438 45.21875 -16.453125 C 42.039062 -13.753906 39.070312 -11.300781 36.3125 -9.09375 C 29.082031 -3.28125 23.75 0.144531 20.3125 1.1875 C 19.207031 1.5 18.015625 1.65625 16.734375 1.65625 C 14.648438 1.65625 13.609375 0.03125 13.609375 -3.21875 C 13.609375 -3.894531 13.894531 -4.90625 14.46875 -6.25 C 15.050781 -7.59375 15.390625 -8.375 15.484375 -8.59375 C 15.578125 -8.8125 15.65625 -8.976562 15.71875 -9.09375 C 15.78125 -9.21875 15.84375 -9.328125 15.90625 -9.421875 C 15.96875 -9.515625 16 -9.617188 16 -9.734375 C 16 -9.859375 15.8125 -9.921875 15.4375 -9.921875 C 15.132812 -9.921875 14.125 -9.109375 12.40625 -7.484375 C 10.6875 -5.867188 9.257812 -4.566406 8.125 -3.578125 C 7 -2.597656 5.710938 -1.679688 4.265625 -0.828125 C 2.828125 0.0234375 1.648438 0.453125 0.734375 0.453125 C -1.710938 0.453125 -2.9375 -0.675781 -2.9375 -2.9375 C -2.9375 -4.289062 -2.476562 -5.945312 -1.5625 -7.90625 C 0.582031 -12.4375 3.800781 -16.96875 8.09375 -21.5 C 12.382812 -26.039062 15.445312 -28.34375 17.28125 -28.40625 C 17.957031 -28.40625 18.570312 -28.160156 19.125 -27.671875 C 19.675781 -27.179688 19.953125 -26.628906 19.953125 -26.015625 C 19.953125 -25.398438 19.335938 -24.476562 18.109375 -23.25 C 16.878906 -22.03125 15.328125 -20.453125 13.453125 -18.515625 C 11.585938 -16.585938 10.269531 -14.976562 9.5 -13.6875 C 8.738281 -12.40625 8.359375 -11.550781 8.359375 -11.125 C 8.359375 -10.695312 8.601562 -10.484375 9.09375 -10.484375 C 9.582031 -10.484375 10.472656 -10.878906 11.765625 -11.671875 C 15.253906 -14.066406 19.25 -17.007812 23.75 -20.5 C 28.257812 -23.988281 31.160156 -26.53125 32.453125 -28.125 C 32.753906 -29.226562 33.671875 -29.78125 35.203125 -29.78125 C 38.148438 -29.78125 39.625 -29.257812 39.625 -28.21875 C 39.625 -27.789062 38.179688 -26.195312 35.296875 -23.4375 C 26.660156 -15.164062 22.34375 -10.050781 22.34375 -8.09375 C 22.34375 -7.78125 22.476562 -7.625 22.75 -7.625 C 23.03125 -7.625 23.535156 -7.8125 24.265625 -8.1875 Z M 24.265625 -8.1875 "/></g></g></g><g fill="#ff604a" fill-opacity="1"><g transform="translate(381.000849, 90.622693)"><g><path d="M 7.265625 -7.71875 C 7.992188 -7.71875 10.242188 -9.21875 14.015625 -12.21875 C 17.785156 -15.226562 21.382812 -18.234375 24.8125 -21.234375 L 29.875 -25.734375 C 30.125 -25.984375 30.25 -26.148438 30.25 -26.234375 C 30.25 -26.328125 30.15625 -26.375 29.96875 -26.375 C 27.632812 -26.375 24.597656 -25.039062 20.859375 -22.375 C 17.128906 -19.71875 13.898438 -16.898438 11.171875 -13.921875 C 8.441406 -10.953125 7.078125 -8.945312 7.078125 -7.90625 C 7.078125 -7.78125 7.140625 -7.71875 7.265625 -7.71875 Z M 23.171875 -6.34375 C 23.171875 -6.15625 23.367188 -6.0625 23.765625 -6.0625 C 24.160156 -6.0625 25.953125 -6.984375 29.140625 -8.828125 C 37.472656 -13.546875 47.273438 -19.859375 58.546875 -27.765625 C 59.097656 -27.328125 59.375 -26.800781 59.375 -26.1875 C 59.375 -25.582031 59.066406 -25.003906 58.453125 -24.453125 C 57.847656 -23.898438 56.976562 -23.101562 55.84375 -22.0625 C 54.707031 -21.019531 52.546875 -19.148438 49.359375 -16.453125 C 46.171875 -13.753906 43.203125 -11.300781 40.453125 -9.09375 C 33.210938 -3.28125 27.878906 0.144531 24.453125 1.1875 C 23.347656 1.5 22.148438 1.65625 20.859375 1.65625 C 19.640625 1.46875 18.523438 1.003906 17.515625 0.265625 C 16.503906 -0.460938 16 -1.316406 16 -2.296875 C 16 -3.273438 16.226562 -4.726562 16.6875 -6.65625 C 17.144531 -8.59375 17.375 -9.632812 17.375 -9.78125 C 17.375 -9.9375 17.328125 -10.015625 17.234375 -10.015625 C 17.140625 -10.015625 16.972656 -9.894531 16.734375 -9.65625 C 15.929688 -8.789062 14.914062 -7.726562 13.6875 -6.46875 C 12.46875 -5.21875 10.367188 -3.535156 7.390625 -1.421875 C 4.421875 0.691406 2.019531 1.75 0.1875 1.75 C -0.125 1.6875 -0.507812 1.578125 -0.96875 1.421875 C -1.425781 1.265625 -2.019531 0.757812 -2.75 -0.09375 C -3.488281 -0.945312 -3.859375 -2.171875 -3.859375 -3.765625 C -3.859375 -5.359375 -2.660156 -7.796875 -0.265625 -11.078125 C 2.117188 -14.359375 5.023438 -17.578125 8.453125 -20.734375 C 11.890625 -23.890625 15.660156 -26.628906 19.765625 -28.953125 C 23.867188 -31.285156 27.453125 -32.453125 30.515625 -32.453125 C 31.617188 -32.453125 32.539062 -31.625 33.28125 -29.96875 C 33.21875 -30.394531 35.207031 -33.164062 39.25 -38.28125 C 43.289062 -43.394531 48.082031 -48.539062 53.625 -53.71875 C 59.175781 -58.90625 63.484375 -61.5 66.546875 -61.5 C 67.585938 -61.5 68.109375 -61.007812 68.109375 -60.03125 C 68.109375 -58.5 67.082031 -56.414062 65.03125 -53.78125 C 62.976562 -51.144531 60.769531 -48.691406 58.40625 -46.421875 C 56.050781 -44.148438 53.003906 -41.300781 49.265625 -37.875 C 40.628906 -30.03125 34.117188 -23.347656 29.734375 -17.828125 C 25.359375 -12.316406 23.171875 -8.488281 23.171875 -6.34375 Z M 23.171875 -6.34375 "/></g></g></g><g fill="#ff604a" fill-opacity="1"><g transform="translate(422.084094, 90.622693)"><g><path d="M 32.265625 -45.5 C 32.878906 -45.5 33.273438 -45.378906 33.453125 -45.140625 C 34.316406 -44.097656 34.75 -43.253906 34.75 -42.609375 C 34.75 -41.960938 34.5625 -41.410156 34.1875 -40.953125 C 33.820312 -40.492188 33.378906 -39.972656 32.859375 -39.390625 C 32.335938 -38.804688 31.296875 -38.007812 29.734375 -37 C 28.171875 -35.988281 26.65625 -35.484375 25.1875 -35.484375 C 24.082031 -35.660156 23.53125 -36.332031 23.53125 -37.5 C 23.53125 -39.34375 24.632812 -41.132812 26.84375 -42.875 C 29.050781 -44.625 30.859375 -45.5 32.265625 -45.5 Z M 10.203125 -9.28125 C 9.710938 -8.425781 9.46875 -7.660156 9.46875 -6.984375 C 9.46875 -6.304688 9.835938 -5.96875 10.578125 -5.96875 C 11.003906 -5.96875 11.738281 -6.15625 12.78125 -6.53125 C 24.238281 -12.53125 35.453125 -19.609375 46.421875 -27.765625 C 46.972656 -27.328125 47.25 -26.800781 47.25 -26.1875 C 47.25 -25.582031 46.941406 -25.003906 46.328125 -24.453125 C 45.710938 -23.898438 44.835938 -23.101562 43.703125 -22.0625 C 42.578125 -21.019531 40.421875 -19.148438 37.234375 -16.453125 C 34.046875 -13.753906 31.070312 -11.300781 28.3125 -9.09375 C 21.082031 -3.28125 15.75 0.144531 12.3125 1.1875 C 11.207031 1.5 10.015625 1.65625 8.734375 1.65625 C 4.015625 1.65625 1.65625 -0.859375 1.65625 -5.890625 C 1.65625 -7.847656 2.726562 -10.648438 4.875 -14.296875 C 7.019531 -17.941406 9.222656 -21.15625 11.484375 -23.9375 C 13.753906 -26.726562 15.257812 -28.28125 16 -28.59375 C 17.101562 -29.257812 18.296875 -29.59375 19.578125 -29.59375 C 20.867188 -29.59375 22.09375 -29.347656 23.25 -28.859375 C 23.625 -28.679688 23.8125 -28.4375 23.8125 -28.125 C 23.8125 -27.820312 23.519531 -27.363281 22.9375 -26.75 C 22.351562 -26.132812 21.460938 -25.179688 20.265625 -23.890625 C 19.066406 -22.609375 17.285156 -20.390625 14.921875 -17.234375 C 12.566406 -14.078125 10.992188 -11.425781 10.203125 -9.28125 Z M 10.203125 -9.28125 "/></g></g></g><g fill="#ff604a" fill-opacity="1"><g transform="translate(449.656733, 90.622693)"><g><path d="M 5.234375 -4.046875 C 7.203125 -4.046875 9.625 -5.332031 12.5 -7.90625 C 15.382812 -10.476562 16.882812 -12.253906 17 -13.234375 C 16.269531 -13.847656 15.488281 -14.96875 14.65625 -16.59375 C 13.832031 -18.21875 13.390625 -19.03125 13.328125 -19.03125 C 11.429688 -17.25 9.742188 -15.195312 8.265625 -12.875 C 5.941406 -8.945312 4.78125 -6.25 4.78125 -4.78125 C 4.78125 -4.289062 4.929688 -4.046875 5.234375 -4.046875 Z M 25.09375 -26.5625 C 24.476562 -26.5625 23.207031 -25.609375 21.28125 -23.703125 C 19.351562 -21.804688 18.390625 -20.492188 18.390625 -19.765625 C 18.390625 -19.578125 18.570312 -19.207031 18.9375 -18.65625 C 19.300781 -18.101562 19.578125 -17.828125 19.765625 -17.828125 C 20.804688 -17.828125 21.984375 -19.082031 23.296875 -21.59375 C 24.617188 -24.113281 25.28125 -25.570312 25.28125 -25.96875 C 25.28125 -26.363281 25.21875 -26.5625 25.09375 -26.5625 Z M 25.28125 -14.703125 C 27 -14.703125 29.679688 -15.742188 33.328125 -17.828125 C 36.972656 -19.910156 40.171875 -21.992188 42.921875 -24.078125 L 47.0625 -27.296875 C 47.613281 -26.867188 47.890625 -26.347656 47.890625 -25.734375 C 47.890625 -25.117188 47.613281 -24.566406 47.0625 -24.078125 C 36.945312 -14.703125 29.285156 -10.015625 24.078125 -10.015625 C 23.710938 -10.015625 23.160156 -10.078125 22.421875 -10.203125 C 15.503906 -2.171875 9.5625 1.84375 4.59375 1.84375 C 1.28125 1.351562 -0.800781 0.1875 -1.65625 -1.65625 C -2.144531 -2.570312 -2.390625 -3.734375 -2.390625 -5.140625 C -2.390625 -9.191406 -0.0625 -14.019531 4.59375 -19.625 C 9.25 -25.226562 15.101562 -29.347656 22.15625 -31.984375 C 22.769531 -31.984375 23.226562 -31.84375 23.53125 -31.5625 C 23.832031 -31.289062 24.109375 -31.140625 24.359375 -31.109375 C 24.609375 -31.078125 24.929688 -31.195312 25.328125 -31.46875 C 25.722656 -31.75 26.253906 -31.90625 26.921875 -31.9375 C 27.597656 -31.96875 28.304688 -31.585938 29.046875 -30.796875 C 30.023438 -29.992188 30.515625 -29.015625 30.515625 -27.859375 C 30.515625 -24.421875 28.769531 -20.035156 25.28125 -14.703125 Z M 25.28125 -14.703125 "/></g></g></g></g></g></svg>