<svg xmlns="http://www.w3.org/2000/svg" xmlns:xlink="http://www.w3.org/1999/xlink" width="2286" zoomAndPan="magnify" viewBox="0 0 1714.5 1148.25001" height="1531" preserveAspectRatio="xMidYMid meet" version="1.0"><defs><g/><clipPath id="e9b76dc427"><rect x="0" width="1388" y="0" height="478"/></clipPath><clipPath id="e07e4a17a3"><rect x="0" width="754" y="0" height="195"/></clipPath></defs><path fill="#ff604a" d="M 943.785156 260.335938 C 945.226562 265.742188 963.976562 277.910156 969.65625 281.605469 C 989.933594 294.949219 1010.214844 308.378906 1030.40625 321.808594 C 1036.085938 325.59375 1043.746094 330.011719 1048.074219 335.328125 C 1048.703125 336.050781 1048.613281 337.132812 1047.804688 337.761719 C 1044.199219 340.738281 1021.753906 332.804688 1017.066406 330.910156 C 1013.820312 329.558594 1009.496094 327.488281 1003.996094 324.421875 C 981.824219 312.433594 962.261719 302.25 945.226562 293.777344 C 941.261719 291.792969 935.945312 289.449219 930.804688 289.179688 C 926.117188 288.910156 928.101562 295.039062 929.273438 297.199219 C 936.125 309.640625 945.679688 320.816406 955.324219 331.273438 C 961.453125 338.03125 967.671875 344.703125 973.980469 351.371094 C 985.519531 363.542969 994.894531 377.964844 1002.011719 392.835938 C 1004.085938 397.253906 999.488281 398.242188 996.515625 396.351562 C 983.175781 387.878906 972.808594 379.496094 962.625 367.6875 C 950.273438 353.265625 938.015625 338.664062 925.847656 324.0625 C 922.601562 320.1875 908.089844 302.878906 902.863281 303.691406 C 893.851562 305.132812 912.777344 346.867188 916.472656 355.609375 C 921.882812 368.679688 931.167969 391.484375 944.328125 423.933594 C 945.136719 425.824219 944.777344 427.269531 943.425781 428.167969 C 943.246094 428.347656 942.972656 428.347656 942.703125 428.257812 C 939.277344 426.996094 935.132812 422.039062 932.699219 419.246094 C 921.433594 406.175781 912.058594 391.84375 904.757812 376.25 C 896.554688 358.855469 887.992188 341.636719 879.066406 324.691406 C 877.804688 322.347656 875.371094 317.121094 872.578125 316.398438 C 872.308594 316.308594 872.128906 316.398438 871.855469 316.582031 C 868.429688 319.464844 868.25 330.101562 868.070312 334.425781 C 867.53125 355.25 868.972656 373.277344 871.226562 394.277344 C 872.667969 408.160156 871.40625 420.507812 868.25 434.207031 C 867.800781 436.011719 867.53125 437.183594 867.167969 437.8125 C 865.90625 440.699219 862.300781 440.519531 861.128906 437.632812 C 855.902344 425.105469 853.109375 412.847656 852.027344 398.964844 C 850.40625 377.242188 849.050781 355.609375 846.617188 333.976562 C 846.078125 329.378906 845.265625 325.144531 844.183594 321.355469 C 842.832031 316.761719 838.777344 314.144531 834.628906 317.84375 C 830.664062 321.449219 826.699219 331.183594 823.453125 339.113281 C 812.996094 364.621094 802.542969 390.042969 791.996094 415.550781 C 790.554688 419.066406 787.128906 427.808594 783.972656 428.167969 C 783.703125 428.167969 783.523438 428.078125 783.34375 427.898438 C 781.902344 426.003906 782.261719 424.113281 782.441406 421.859375 C 783.882812 406.898438 786.769531 392.203125 791.003906 377.78125 C 796.230469 360.476562 802.542969 343.53125 808.21875 326.40625 C 809.84375 321.628906 813.808594 309.730469 809.84375 305.222656 C 809.664062 305.042969 809.390625 304.863281 809.121094 304.863281 C 802.902344 304.140625 796.324219 311.710938 792.988281 315.226562 C 780.546875 328.117188 768.832031 341.546875 757.925781 355.699219 C 753.417969 361.46875 750.351562 365.34375 748.820312 367.054688 C 739.535156 377.511719 728.808594 385.625 717.722656 394.097656 C 715.46875 395.808594 712.046875 394.367188 713.21875 391.304688 C 716.640625 382.832031 720.246094 375.257812 724.214844 368.410156 C 728.449219 361.015625 733.226562 355.160156 739.808594 347.585938 C 750.984375 334.699219 761.710938 321.355469 771.984375 307.65625 C 775.230469 303.238281 786.046875 289.089844 782.082031 283.769531 C 779.375 280.164062 770.632812 285.304688 767.570312 287.105469 C 754.949219 294.585938 740.347656 303.691406 723.761719 314.238281 C 708.980469 323.699219 692.9375 331.542969 675.628906 337.851562 C 674.820312 338.121094 674.007812 338.121094 673.105469 338.121094 C 672.835938 338.121094 672.65625 338.03125 672.476562 337.851562 C 668.417969 333.617188 694.738281 313.515625 698.433594 310.902344 C 716.824219 297.921875 733.40625 286.023438 748.097656 275.117188 C 751.613281 272.503906 765.40625 262.5 766.488281 257.722656 C 767.660156 252.582031 761.621094 251.230469 757.652344 251.410156 C 749.179688 251.683594 741.339844 252.402344 734.308594 253.664062 C 710.691406 257.722656 683.921875 261.867188 653.816406 266.195312 C 651.925781 266.464844 650.570312 266.015625 649.671875 264.933594 C 649.492188 264.75 649.398438 264.480469 649.492188 264.210938 C 649.941406 261.867188 652.824219 260.515625 654.71875 259.613281 C 672.566406 250.328125 690.863281 244.289062 710.691406 241.136719 C 721.871094 239.421875 732.957031 237.351562 743.953125 235.007812 C 748.550781 234.015625 759.277344 231.761719 760.71875 226.894531 C 763.421875 217.882812 745.574219 214.726562 739.625 213.285156 C 733.859375 211.933594 728.089844 210.671875 722.230469 209.679688 C 698.613281 205.53125 674.910156 201.65625 651.203125 198.050781 C 649.039062 197.691406 646.964844 197.238281 644.984375 196.609375 C 644.804688 196.519531 644.625 196.429688 644.441406 196.25 C 642.28125 192.824219 648.046875 191.5625 650.570312 190.929688 C 667.96875 186.605469 684.554688 184.890625 702.492188 186.875 C 723.492188 189.21875 739.085938 191.019531 756.84375 190.390625 C 759.1875 190.300781 762.339844 189.21875 763.421875 187.054688 C 765.136719 183.539062 758.914062 178.851562 756.121094 176.960938 C 742.332031 167.855469 727.1875 160.375 712.136719 153.613281 C 705.464844 150.550781 701.136719 148.476562 698.976562 147.304688 C 687.980469 141.355469 677.972656 133.785156 668.960938 124.769531 C 663.550781 119.453125 668.148438 116.65625 673.828125 117.648438 C 682.210938 119.089844 690.414062 121.253906 698.34375 124.230469 C 707.539062 127.65625 717.183594 133.332031 726.375 138.199219 C 740.527344 145.683594 756.933594 153.703125 772.886719 157.761719 C 782.800781 160.285156 781.449219 153.253906 777.484375 147.753906 C 772.164062 140.363281 766.398438 133.332031 760.269531 126.574219 C 742.058594 106.382812 723.941406 86.101562 705.914062 65.730469 C 703.390625 62.847656 701.320312 59.960938 699.695312 57.078125 C 698.523438 54.914062 699.425781 51.757812 702.402344 52.300781 C 703.84375 52.570312 706.1875 53.5625 709.339844 55.363281 C 719.707031 61.3125 727.910156 68.074219 737.191406 76.726562 C 752.066406 90.789062 767.027344 104.761719 781.992188 118.730469 C 788.121094 124.5 795.152344 131.261719 802.363281 135.136719 C 807.140625 137.75 812.367188 135.226562 811.554688 129.277344 C 810.203125 119.902344 805.605469 110.078125 801.730469 101.335938 C 790.464844 75.554688 779.285156 49.777344 768.199219 23.996094 C 767.480469 22.285156 764.773438 16.875 767.660156 15.253906 C 767.839844 15.164062 768.109375 15.074219 768.378906 15.164062 C 769.460938 15.34375 770.183594 15.707031 770.542969 16.066406 C 798.035156 41.753906 812.367188 77.089844 829.671875 109.535156 C 831.207031 112.421875 835.351562 120.261719 838.234375 121.523438 C 847.070312 125.402344 846.707031 88.445312 846.707031 84.839844 C 846.707031 58.789062 846.890625 32.652344 847.25 6.601562 C 847.25 4.257812 847.789062 2.363281 848.78125 1.011719 C 848.960938 0.832031 849.140625 0.652344 849.414062 0.652344 C 852.207031 0.203125 853.289062 3.988281 854.007812 5.96875 C 860.140625 23.367188 863.925781 41.304688 865.546875 59.601562 C 867.078125 76.996094 865.546875 94.484375 867.53125 111.878906 C 867.980469 116.117188 869.421875 124.140625 874.378906 124.230469 C 887.992188 124.410156 911.066406 60.140625 917.554688 48.335938 C 923.414062 37.609375 930.714844 27.785156 939.367188 18.769531 C 943.066406 14.894531 944.957031 19.941406 944.417969 23.097656 C 941.984375 36.347656 938.738281 48.152344 933.148438 60.503906 C 924.226562 80.421875 914.761719 100.34375 907.460938 120.894531 C 905.929688 125.128906 900.609375 141.175781 909.625 140.8125 C 916.023438 140.542969 926.660156 129.007812 930.984375 124.410156 C 940.089844 114.855469 949.105469 105.210938 957.9375 95.476562 C 972 79.972656 987.140625 66.902344 1005.078125 55.636719 C 1007.0625 54.375 1010.394531 52.300781 1011.65625 55.546875 C 1011.75 55.816406 1011.75 55.996094 1011.65625 56.175781 C 1009.675781 59.960938 1007.691406 63.027344 1005.617188 65.460938 C 985.339844 89.4375 965.238281 113.59375 945.226562 137.839844 C 941.082031 142.886719 937.566406 147.664062 934.140625 152.800781 C 927.921875 161.90625 935.042969 164.789062 942.882812 162.445312 C 955.953125 158.480469 966.589844 153.703125 978.21875 148.386719 C 1000.03125 138.378906 1021.933594 128.644531 1043.925781 119.089844 C 1045.1875 118.550781 1046.449219 118.101562 1047.710938 117.738281 C 1049.875 117.199219 1051.949219 118.820312 1050.507812 121.074219 C 1049.425781 122.878906 1048.074219 124.5 1046.632812 125.941406 C 1035.183594 137.75 1022.65625 146.851562 1008.054688 154.335938 C 993.632812 161.726562 979.480469 169.566406 965.597656 177.769531 C 962.625 179.574219 949.375 186.875 949.914062 191.472656 C 950.367188 195.167969 960.371094 195.347656 963.433594 195.4375 C 996.964844 195.976562 1027.972656 193.90625 1060.152344 191.742188 C 1061.773438 191.652344 1063.488281 191.742188 1065.289062 191.921875 C 1066.101562 192.011719 1066.730469 192.824219 1066.550781 193.632812 C 1066.550781 193.722656 1066.550781 193.722656 1066.550781 193.816406 C 1065.738281 196.609375 1054.023438 201.386719 1051.136719 202.46875 C 1036.804688 208.238281 1022.203125 211.660156 1006.882812 213.554688 C 990.476562 215.539062 973.800781 217.789062 957.757812 221.578125 C 954.152344 222.476562 951.355469 225.183594 953.609375 229.058594 C 955.503906 232.300781 963.617188 235.457031 968.210938 236.898438 C 983.445312 241.855469 999.488281 244.832031 1015.355469 246.816406 C 1022.566406 247.714844 1027.34375 248.4375 1029.777344 248.976562 C 1042.574219 251.773438 1054.472656 256.910156 1065.46875 264.300781 C 1071.058594 268.085938 1065.558594 270.519531 1061.773438 270.519531 C 1055.914062 270.519531 1050.144531 270.070312 1044.378906 269.167969 C 1025.71875 266.375 1007.0625 263.578125 988.402344 260.695312 C 977.046875 258.894531 964.066406 256.367188 953.070312 254.835938 C 949.285156 253.84375 942.34375 255.015625 943.785156 260.335938 Z M 943.785156 260.335938 " fill-opacity="1" fill-rule="nonzero"/><path fill="#1d1d1d" d="M 861.402344 254.386719 L 849.683594 254.386719 C 848.511719 254.386719 847.339844 253.84375 846.527344 253.035156 C 845.71875 252.132812 845.355469 250.960938 845.445312 249.789062 C 845.445312 249.519531 847.519531 224.640625 834.902344 211.03125 C 828.773438 204.449219 817.144531 204.089844 808.402344 204.902344 C 798.304688 205.894531 789.742188 208.6875 789.652344 208.777344 C 787.398438 209.5 785.054688 208.328125 784.335938 206.074219 C 783.613281 203.820312 784.785156 201.476562 787.039062 200.753906 C 788.570312 200.214844 825.4375 188.226562 841.210938 205.261719 C 852.929688 217.882812 854.191406 237.171875 854.191406 246.003906 L 857.433594 246.003906 C 857.613281 243.570312 857.976562 240.054688 858.425781 235.007812 C 859.867188 219.863281 860.230469 218.960938 860.410156 218.332031 C 864.375 208.144531 872.847656 201.296875 884.207031 199.132812 C 897.636719 196.609375 913.5 199.042969 925.398438 205.53125 C 927.472656 206.613281 928.191406 209.226562 927.109375 211.300781 C 926.027344 213.375 923.414062 214.09375 921.339844 213.011719 C 911.066406 207.425781 897.457031 205.261719 885.828125 207.425781 C 877.355469 209.046875 871.40625 213.734375 868.429688 221.035156 C 867.800781 224.28125 865.726562 246.632812 865.636719 249.699219 C 865.636719 249.878906 865.636719 249.96875 865.636719 250.148438 C 865.636719 252.492188 863.746094 254.386719 861.402344 254.386719 Z M 868.25 221.214844 Z M 868.25 221.214844 " fill-opacity="1" fill-rule="nonzero"/><path fill="#1d1d1d" d="M 799.386719 231.941406 C 796.140625 227.164062 797.675781 220.40625 802.902344 216.710938 C 795.0625 217.429688 788.390625 219.683594 784.246094 222.566406 C 782.171875 224.011719 782.171875 226.445312 784.246094 227.976562 C 788.03125 230.679688 793.980469 232.753906 800.917969 233.65625 C 800.378906 233.203125 799.835938 232.664062 799.386719 231.941406 Z M 799.386719 231.941406 " fill-opacity="1" fill-rule="nonzero"/><path fill="#1d1d1d" d="M 834.179688 222.65625 C 830.394531 219.953125 824.445312 217.882812 817.503906 216.980469 C 818.046875 217.519531 818.585938 218.0625 819.035156 218.691406 C 822.28125 223.46875 820.75 230.230469 815.523438 233.925781 C 823.363281 233.203125 830.035156 230.949219 834.179688 228.066406 C 836.253906 226.535156 836.253906 224.101562 834.179688 222.65625 Z M 834.179688 222.65625 " fill-opacity="1" fill-rule="nonzero"/><path fill="#1d1d1d" d="M 892.769531 231.941406 C 889.523438 227.164062 891.054688 220.40625 896.285156 216.710938 C 888.441406 217.429688 881.773438 219.683594 877.625 222.566406 C 875.550781 224.011719 875.550781 226.445312 877.625 227.976562 C 881.410156 230.679688 887.359375 232.753906 894.300781 233.65625 C 893.667969 233.203125 893.128906 232.664062 892.769531 231.941406 Z M 892.769531 231.941406 " fill-opacity="1" fill-rule="nonzero"/><path fill="#1d1d1d" d="M 927.472656 222.65625 C 923.683594 219.953125 917.734375 217.882812 910.796875 216.980469 C 911.335938 217.519531 911.878906 218.0625 912.328125 218.691406 C 915.574219 223.46875 914.039062 230.230469 908.8125 233.925781 C 916.65625 233.203125 923.324219 230.949219 927.472656 228.066406 C 929.542969 226.535156 929.542969 224.101562 927.472656 222.65625 Z M 927.472656 222.65625 " fill-opacity="1" fill-rule="nonzero"/><g transform="matrix(1, 0, 0, 1, 168, 496)"><g clip-path="url(#e9b76dc427)"><g fill="#f2f1ee" fill-opacity="1"><g transform="translate(3.909334, 338.876809)"><g><path d="M 155.796875 -271.375 L 91.078125 -63.796875 L 159.953125 -63.796875 L 159.953125 0 L 2.78125 0 L 2.78125 -51.78125 L 73.046875 -266.28125 L 10.640625 -266.28125 L 10.640625 -330.078125 L 155.796875 -330.078125 Z M 155.796875 -271.375 "/></g></g></g><g fill="#f2f1ee" fill-opacity="1"><g transform="translate(166.634478, 338.876809)"><g><path d="M 104.015625 -199.25 L 104.9375 -199.25 L 125.75 -330.078125 L 205.265625 -330.078125 L 143.78125 -120.65625 L 143.78125 0 L 61.484375 0 L 61.484375 -120.203125 L 0 -330.078125 L 79.515625 -330.078125 Z M 104.015625 -199.25 "/></g></g></g><g fill="#f2f1ee" fill-opacity="1"><g transform="translate(371.89001, 338.876809)"><g><path d="M 130.828125 -165.96875 L 131.75 -165.96875 L 131.75 -330.078125 L 203.875 -330.078125 L 203.875 0 L 131.75 0 L 83.671875 -184.453125 L 82.28125 -184.453125 L 82.28125 0 L 10.171875 0 L 10.171875 -330.078125 L 82.28125 -330.078125 Z M 130.828125 -165.96875 "/></g></g></g><g fill="#f2f1ee" fill-opacity="1"><g transform="translate(585.929101, 338.876809)"><g><path d="M 211.734375 0 L 126.671875 0 L 122.515625 -58.25 L 91.53125 -58.25 L 87.375 0 L 2.3125 0 L 43.921875 -330.078125 L 166.421875 -330.078125 Z M 91.53125 -116.5 L 121.125 -116.5 L 106.328125 -271.828125 L 105.40625 -271.828125 Z M 91.53125 -116.5 "/></g></g></g><g fill="#f2f1ee" fill-opacity="1"><g transform="translate(799.968191, 338.876809)"><g><path d="M 199.71875 -256.578125 L 199.71875 -211.734375 C 199.71875 -185.535156 193.707031 -166.117188 181.6875 -153.484375 C 169.664062 -140.847656 152.867188 -134.53125 131.296875 -134.53125 L 92.453125 -134.53125 L 92.453125 0 L 10.171875 0 L 10.171875 -330.078125 L 123.4375 -330.078125 C 147.78125 -330.078125 166.578125 -323.679688 179.828125 -310.890625 C 193.085938 -298.097656 199.71875 -279.992188 199.71875 -256.578125 Z M 127.59375 -208.953125 L 127.59375 -255.65625 C 127.59375 -268.289062 121.117188 -274.609375 108.171875 -274.609375 L 92.453125 -274.609375 L 92.453125 -190 L 108.171875 -190 C 121.117188 -190 127.59375 -196.316406 127.59375 -208.953125 Z M 127.59375 -208.953125 "/></g></g></g><g fill="#f2f1ee" fill-opacity="1"><g transform="translate(1005.223724, 338.876809)"><g><path d="M 99.390625 -337.015625 C 161.953125 -337.015625 193.234375 -313.4375 193.234375 -266.28125 L 193.234375 -233.453125 L 116.96875 -233.453125 L 116.96875 -262.125 C 116.96875 -276.914062 111.414062 -284.3125 100.3125 -284.3125 C 90.757812 -284.3125 85.984375 -277.53125 85.984375 -263.96875 L 85.984375 -247.328125 C 85.984375 -241.160156 88.140625 -235.378906 92.453125 -229.984375 C 96.773438 -224.597656 101.398438 -220.207031 106.328125 -216.8125 C 111.253906 -213.425781 119.113281 -208.5 129.90625 -202.03125 C 143.15625 -194.007812 154.476562 -186.144531 163.875 -178.4375 C 173.28125 -170.738281 181.445312 -160.800781 188.375 -148.625 C 195.3125 -136.457031 198.78125 -122.050781 198.78125 -105.40625 L 198.78125 -75.8125 C 198.78125 -44.6875 189.921875 -23.113281 172.203125 -11.09375 C 154.484375 0.925781 130.210938 6.9375 99.390625 6.9375 C 65.492188 6.9375 41.609375 0.15625 27.734375 -13.40625 C 13.867188 -26.96875 6.9375 -47.925781 6.9375 -76.28125 L 6.9375 -120.203125 L 86.453125 -120.203125 L 86.453125 -65.640625 C 86.453125 -52.390625 91.226562 -45.765625 100.78125 -45.765625 C 106.019531 -45.765625 109.945312 -47.84375 112.5625 -52 C 115.1875 -56.164062 116.5 -63.179688 116.5 -73.046875 L 116.5 -90.609375 C 116.5 -98.929688 114.265625 -106.328125 109.796875 -112.796875 C 105.328125 -119.273438 100.394531 -124.515625 95 -128.515625 C 89.601562 -132.523438 81.976562 -137.613281 72.125 -143.78125 C 58.863281 -151.789062 47.84375 -159.335938 39.0625 -166.421875 C 30.28125 -173.515625 22.648438 -182.757812 16.171875 -194.15625 C 9.703125 -205.5625 6.46875 -219.125 6.46875 -234.84375 L 6.46875 -257.03125 C 6.46875 -310.351562 37.441406 -337.015625 99.390625 -337.015625 Z M 99.390625 -337.015625 "/></g></g></g><g fill="#f2f1ee" fill-opacity="1"><g transform="translate(1210.479257, 338.876809)"><g><path d="M 153.9375 -263.515625 L 95.234375 -263.515625 L 95.234375 -202.953125 L 150.25 -202.953125 L 150.25 -139.15625 L 95.234375 -139.15625 L 95.234375 -66.578125 L 158.5625 -66.578125 L 158.5625 0 L 10.171875 0 L 10.171875 -330.078125 L 153.9375 -330.078125 Z M 153.9375 -263.515625 "/></g></g></g></g></g><g transform="matrix(1, 0, 0, 1, 495, 866)"><g clip-path="url(#e07e4a17a3)"><g fill="#ff604a" fill-opacity="1"><g transform="translate(1.761179, 135.648726)"><g><path d="M 58.046875 -42.703125 C 57.953125 -39.390625 55.898438 -36.117188 51.890625 -32.890625 C 47.890625 -29.671875 43.03125 -28.0625 37.3125 -28.0625 C 34.914062 -28.0625 33.71875 -28.75 33.71875 -30.125 C 33.71875 -30.6875 34.132812 -31.101562 34.96875 -31.375 C 40.5 -34.601562 44 -37.226562 45.46875 -39.25 C 45.65625 -39.625 45.75 -40.039062 45.75 -40.5 C 45.75 -40.957031 45.519531 -41.1875 45.0625 -41.1875 C 37.226562 -40.082031 29.765625 -35.796875 22.671875 -28.328125 C 15.578125 -20.867188 12.03125 -15.066406 12.03125 -10.921875 C 12.03125 -8.984375 12.765625 -8.015625 14.234375 -8.015625 C 21.054688 -8.015625 28.242188 -9.992188 35.796875 -13.953125 C 43.347656 -17.921875 54.59375 -25.203125 69.53125 -35.796875 C 70.539062 -36.535156 72.082031 -37.640625 74.15625 -39.109375 C 76.226562 -40.585938 77.445312 -41.460938 77.8125 -41.734375 C 78.644531 -41.097656 79.0625 -40.316406 79.0625 -39.390625 C 79.0625 -38.472656 78.644531 -37.644531 77.8125 -36.90625 C 73.207031 -32.300781 67.238281 -27.140625 59.90625 -21.421875 C 52.582031 -15.710938 44.175781 -10.300781 34.6875 -5.1875 C 25.195312 -0.0703125 17.457031 2.484375 11.46875 2.484375 C 4.375 2.484375 0.828125 -1.289062 0.828125 -8.84375 C 0.828125 -14.09375 2.578125 -19.226562 6.078125 -24.25 C 9.578125 -29.28125 13.859375 -33.5 18.921875 -36.90625 C 23.992188 -40.3125 29.296875 -43.050781 34.828125 -45.125 C 40.359375 -47.195312 44.804688 -48.234375 48.171875 -48.234375 C 51.535156 -48.234375 53.953125 -47.769531 55.421875 -46.84375 C 56.898438 -45.925781 57.6875 -45.007812 57.78125 -44.09375 Z M 58.046875 -42.703125 "/></g></g></g><g fill="#ff604a" fill-opacity="1"><g transform="translate(54.417046, 135.648726)"><g><path d="M 5.109375 -25.84375 C 10.179688 -29.34375 15.484375 -33.125 21.015625 -37.1875 C 18.066406 -39.207031 16.175781 -41.1875 15.34375 -43.125 C 15.0625 -43.769531 14.921875 -44.226562 14.921875 -44.5 C 14.921875 -46.34375 15.519531 -47.5625 16.71875 -48.15625 C 17.914062 -48.757812 19.851562 -49.0625 22.53125 -49.0625 C 23.539062 -49.0625 26.535156 -47.816406 31.515625 -45.328125 C 36.492188 -42.847656 39.648438 -41.609375 40.984375 -41.609375 C 42.316406 -41.609375 44.179688 -42 46.578125 -42.78125 C 48.972656 -43.5625 50.882812 -43.953125 52.3125 -43.953125 C 53.738281 -43.953125 54.773438 -43.628906 55.421875 -42.984375 C 57.722656 -39.941406 58.875 -38.097656 58.875 -37.453125 C 58.875 -36.804688 58.570312 -36.273438 57.96875 -35.859375 C 57.375 -35.453125 55.488281 -34.140625 52.3125 -31.921875 C 49.132812 -29.710938 46.023438 -27.457031 42.984375 -25.15625 C 39.941406 -22.851562 37.082031 -20.269531 34.40625 -17.40625 C 31.738281 -14.550781 30.40625 -12.25 30.40625 -10.5 C 30.40625 -10.226562 30.632812 -10.09375 31.09375 -10.09375 C 36.070312 -10.09375 52.84375 -20.179688 81.40625 -40.359375 C 82.050781 -40.359375 82.375 -39.78125 82.375 -38.625 C 82.375 -37.476562 78.734375 -33.519531 71.453125 -26.75 C 64.179688 -19.976562 55.957031 -13.34375 46.78125 -6.84375 C 37.613281 -0.34375 30.957031 2.90625 26.8125 2.90625 C 20.363281 2.90625 17.140625 -0.316406 17.140625 -6.765625 C 17.140625 -10.273438 18.3125 -13.664062 20.65625 -16.9375 C 23.007812 -20.207031 27.960938 -24.601562 35.515625 -30.125 C 33.953125 -30.125 31.832031 -30.515625 29.15625 -31.296875 C 26.488281 -32.085938 24.785156 -33.035156 24.046875 -34.140625 C 21.648438 -32.023438 17.503906 -28.476562 11.609375 -23.5 C 10.222656 -22.488281 8.425781 -21.984375 6.21875 -21.984375 C 4.007812 -21.984375 2.90625 -22.328125 2.90625 -23.015625 C 2.90625 -23.703125 3.640625 -24.644531 5.109375 -25.84375 Z M 5.109375 -25.84375 "/></g></g></g><g fill="#ff604a" fill-opacity="1"><g transform="translate(111.771847, 135.648726)"><g><path d="M 42.84375 -41.734375 C 40.445312 -41.734375 36.390625 -39.269531 30.671875 -34.34375 C 24.960938 -29.414062 22.109375 -26.398438 22.109375 -25.296875 C 22.109375 -25.109375 22.25 -25.015625 22.53125 -25.015625 C 24.5625 -25.015625 28.59375 -27.269531 34.625 -31.78125 C 40.65625 -36.300781 43.671875 -39.390625 43.671875 -41.046875 C 43.671875 -41.503906 43.394531 -41.734375 42.84375 -41.734375 Z M 13.40625 2.484375 C 6.3125 2.484375 2.765625 -1.84375 2.765625 -10.5 C 2.765625 -15.9375 5.132812 -21.71875 9.875 -27.84375 C 14.625 -33.976562 20.222656 -39.003906 26.671875 -42.921875 C 33.117188 -46.835938 38.832031 -48.796875 43.8125 -48.796875 C 46.019531 -48.796875 48.066406 -47.914062 49.953125 -46.15625 C 51.847656 -44.40625 52.796875 -42.703125 52.796875 -41.046875 C 52.796875 -38.003906 50.628906 -34.570312 46.296875 -30.75 C 41.972656 -26.925781 37.4375 -23.835938 32.6875 -21.484375 C 27.945312 -19.140625 24.816406 -17.96875 23.296875 -17.96875 C 21.773438 -17.96875 20.644531 -18.660156 19.90625 -20.046875 C 19.53125 -20.316406 19.019531 -20.453125 18.375 -20.453125 C 17.738281 -20.453125 16.679688 -19.226562 15.203125 -16.78125 C 13.734375 -14.34375 13 -12.363281 13 -10.84375 C 13 -9.320312 13.550781 -8.378906 14.65625 -8.015625 C 21.65625 -8.015625 29.253906 -10.0625 37.453125 -14.15625 C 45.660156 -18.257812 56.992188 -25.472656 71.453125 -35.796875 C 72.472656 -36.535156 74.019531 -37.640625 76.09375 -39.109375 C 78.164062 -40.585938 79.382812 -41.460938 79.75 -41.734375 C 80.582031 -41.097656 81 -40.316406 81 -39.390625 C 81 -38.472656 80.582031 -37.644531 79.75 -36.90625 C 75.144531 -32.300781 69.175781 -27.140625 61.84375 -21.421875 C 54.519531 -15.710938 46.113281 -10.300781 36.625 -5.1875 C 27.132812 -0.0703125 19.394531 2.484375 13.40625 2.484375 Z M 13.40625 2.484375 "/></g></g></g><g fill="#ff604a" fill-opacity="1"><g transform="translate(162.078213, 135.648726)"><g><path d="M 24.609375 -5.8125 L 25.703125 -14.65625 C 25.703125 -14.925781 25.632812 -15.0625 25.5 -15.0625 C 25.363281 -15.0625 25.109375 -14.878906 24.734375 -14.515625 C 23.535156 -13.222656 22.015625 -11.628906 20.171875 -9.734375 C 18.335938 -7.847656 15.1875 -5.316406 10.71875 -2.140625 C 6.25 1.035156 2.628906 2.625 -0.140625 2.625 C -0.597656 2.53125 -1.171875 2.367188 -1.859375 2.140625 C -2.554688 1.910156 -3.457031 1.148438 -4.5625 -0.140625 C -5.664062 -1.429688 -6.21875 -3.273438 -6.21875 -5.671875 C -6.21875 -8.066406 -4.394531 -11.726562 -0.75 -16.65625 C 2.882812 -21.582031 7.234375 -26.414062 12.296875 -31.15625 C 17.367188 -35.90625 23.015625 -40.03125 29.234375 -43.53125 C 35.453125 -47.039062 40.863281 -48.796875 45.46875 -48.796875 C 47.21875 -48.703125 48.601562 -47.457031 49.625 -45.0625 C 50.539062 -45.976562 51.367188 -46.4375 52.109375 -46.4375 C 52.847656 -46.4375 53.722656 -45.882812 54.734375 -44.78125 C 55.285156 -44.6875 55.835938 -44.382812 56.390625 -43.875 C 56.941406 -43.375 57.21875 -42.660156 57.21875 -41.734375 C 57.21875 -40.816406 56.570312 -39.804688 55.28125 -38.703125 C 53.351562 -36.304688 51.097656 -33.585938 48.515625 -30.546875 C 45.929688 -27.503906 44.085938 -25.316406 42.984375 -23.984375 C 41.878906 -22.648438 40.726562 -21.148438 39.53125 -19.484375 C 37.5 -16.628906 36.394531 -14.328125 36.21875 -12.578125 C 45.613281 -17.085938 60.398438 -26.804688 80.578125 -41.734375 C 81.410156 -41.097656 81.828125 -40.316406 81.828125 -39.390625 C 81.828125 -38.472656 81.457031 -37.691406 80.71875 -37.046875 C 79.976562 -36.398438 79.078125 -35.613281 78.015625 -34.6875 C 76.960938 -33.769531 74.867188 -31.972656 71.734375 -29.296875 C 68.597656 -26.628906 65.578125 -24.070312 62.671875 -21.625 C 59.773438 -19.1875 56.457031 -16.46875 52.71875 -13.46875 C 48.988281 -10.476562 45.648438 -7.925781 42.703125 -5.8125 C 35.609375 -0.738281 31.1875 1.796875 29.4375 1.796875 C 27.6875 1.796875 26.441406 1.242188 25.703125 0.140625 C 24.972656 -0.960938 24.609375 -2.945312 24.609375 -5.8125 Z M 10.5 -11.609375 C 11.601562 -11.609375 14.988281 -13.863281 20.65625 -18.375 C 26.332031 -22.894531 31.703125 -27.410156 36.765625 -31.921875 L 44.5 -38.703125 C 44.875 -39.066406 45.0625 -39.316406 45.0625 -39.453125 C 45.0625 -39.597656 44.921875 -39.671875 44.640625 -39.671875 C 41.140625 -39.671875 36.578125 -37.664062 30.953125 -33.65625 C 25.335938 -29.644531 20.476562 -25.40625 16.375 -20.9375 C 12.28125 -16.46875 10.234375 -13.453125 10.234375 -11.890625 C 10.234375 -11.703125 10.320312 -11.609375 10.5 -11.609375 Z M 10.5 -11.609375 "/></g></g></g><g fill="#ff604a" fill-opacity="1"><g transform="translate(215.977929, 135.648726)"><g><path d="M 63.4375 -63.859375 L 70.484375 -64 C 79.609375 -64 86.242188 -62.707031 90.390625 -60.125 C 92.421875 -59.476562 93.4375 -58.648438 93.4375 -57.640625 C 93.4375 -56.898438 92.535156 -56.390625 90.734375 -56.109375 C 88.941406 -55.835938 82.722656 -55.125 72.078125 -53.96875 C 61.429688 -52.820312 54.128906 -52.15625 50.171875 -51.96875 C 48.421875 -51.875 44.390625 -48.832031 38.078125 -42.84375 C 31.765625 -36.851562 25.75 -30.265625 20.03125 -23.078125 C 14.320312 -15.890625 11.46875 -10.867188 11.46875 -8.015625 C 11.46875 -7.554688 11.695312 -7.164062 12.15625 -6.84375 C 12.625 -6.519531 13.203125 -6.359375 13.890625 -6.359375 C 14.578125 -6.359375 15.660156 -6.632812 17.140625 -7.1875 C 34.648438 -17.507812 51.648438 -28.796875 68.140625 -41.046875 C 68.972656 -40.398438 69.390625 -39.613281 69.390625 -38.6875 C 69.390625 -37.769531 68.925781 -36.875 68 -36 C 67.082031 -35.125 65.722656 -33.859375 63.921875 -32.203125 C 62.128906 -30.546875 58.789062 -27.550781 53.90625 -23.21875 C 49.019531 -18.882812 44.410156 -15.015625 40.078125 -11.609375 C 28.472656 -2.210938 20.363281 3.222656 15.75 4.703125 C 14.09375 5.160156 12.132812 5.390625 9.875 5.390625 C 7.625 5.390625 5.550781 4.238281 3.65625 1.9375 C 1.769531 -0.363281 0.828125 -3.492188 0.828125 -7.453125 C 0.828125 -11.421875 3.382812 -17.132812 8.5 -24.59375 C 13.613281 -32.0625 20.59375 -39.710938 29.4375 -47.546875 C 30.269531 -48.191406 30.6875 -48.789062 30.6875 -49.34375 C 30.6875 -49.894531 29.71875 -50.171875 27.78125 -50.171875 L 19.078125 -49.890625 C 6.816406 -49.890625 0.503906 -51.273438 0.140625 -54.046875 C -2.710938 -54.597656 -4.140625 -55.425781 -4.140625 -56.53125 C -4.140625 -56.894531 -3.957031 -57.097656 -3.59375 -57.140625 C -3.226562 -57.191406 -2.90625 -57.238281 -2.625 -57.28125 C -2.351562 -57.332031 -1.894531 -57.40625 -1.25 -57.5 C -0.601562 -57.59375 4.484375 -58.328125 14.015625 -59.703125 C 23.554688 -61.085938 34.410156 -62.242188 46.578125 -63.171875 L 56.109375 -75.875 C 56.671875 -76.988281 58.609375 -77.546875 61.921875 -77.546875 C 65.234375 -77.546875 66.890625 -76.851562 66.890625 -75.46875 C 66.890625 -75.007812 66.523438 -74.179688 65.796875 -72.984375 L 62.34375 -68.140625 C 61.875 -66.671875 61.59375 -65.566406 61.5 -64.828125 C 61.5 -64.179688 62.144531 -63.859375 63.4375 -63.859375 Z M 63.4375 -63.859375 "/></g></g></g><g fill="#ff604a" fill-opacity="1"><g transform="translate(259.235859, 135.648726)"><g><path d="M 48.515625 -68.421875 C 49.429688 -68.421875 50.03125 -68.234375 50.3125 -67.859375 C 51.601562 -66.296875 52.25 -65.03125 52.25 -64.0625 C 52.25 -63.09375 51.972656 -62.265625 51.421875 -61.578125 C 50.867188 -60.890625 50.195312 -60.101562 49.40625 -59.21875 C 48.625 -58.34375 47.054688 -57.144531 44.703125 -55.625 C 42.359375 -54.113281 40.082031 -53.359375 37.875 -53.359375 C 36.21875 -53.628906 35.390625 -54.640625 35.390625 -56.390625 C 35.390625 -59.160156 37.046875 -61.859375 40.359375 -64.484375 C 43.671875 -67.109375 46.390625 -68.421875 48.515625 -68.421875 Z M 15.34375 -13.953125 C 14.601562 -12.671875 14.234375 -11.519531 14.234375 -10.5 C 14.234375 -9.488281 14.785156 -8.984375 15.890625 -8.984375 C 16.535156 -8.984375 17.644531 -9.257812 19.21875 -9.8125 C 36.445312 -18.84375 53.304688 -29.484375 69.796875 -41.734375 C 70.628906 -41.097656 71.046875 -40.316406 71.046875 -39.390625 C 71.046875 -38.472656 70.582031 -37.597656 69.65625 -36.765625 C 68.738281 -35.929688 67.425781 -34.734375 65.71875 -33.171875 C 64.019531 -31.609375 60.773438 -28.796875 55.984375 -24.734375 C 51.191406 -20.679688 46.722656 -17 42.578125 -13.6875 C 31.703125 -4.925781 23.679688 0.234375 18.515625 1.796875 C 16.859375 2.253906 15.0625 2.484375 13.125 2.484375 C 6.03125 2.484375 2.484375 -1.289062 2.484375 -8.84375 C 2.484375 -11.789062 4.09375 -16.003906 7.3125 -21.484375 C 10.539062 -26.972656 13.859375 -31.8125 17.265625 -36 C 20.679688 -40.195312 22.941406 -42.523438 24.046875 -42.984375 C 25.703125 -43.992188 27.5 -44.5 29.4375 -44.5 C 31.375 -44.5 33.21875 -44.132812 34.96875 -43.40625 C 35.519531 -43.125 35.796875 -42.753906 35.796875 -42.296875 C 35.796875 -41.835938 35.359375 -41.144531 34.484375 -40.21875 C 33.609375 -39.300781 32.269531 -37.875 30.46875 -35.9375 C 28.675781 -34 26.003906 -30.65625 22.453125 -25.90625 C 18.910156 -21.164062 16.539062 -17.179688 15.34375 -13.953125 Z M 15.34375 -13.953125 "/></g></g></g><g fill="#ff604a" fill-opacity="1"><g transform="translate(300.697148, 135.648726)"><g><path d="M 22.9375 -42.296875 C 24.78125 -44.503906 26.207031 -45.609375 27.21875 -45.609375 C 28.238281 -45.609375 29.484375 -45.351562 30.953125 -44.84375 C 32.429688 -44.34375 33.171875 -43.609375 33.171875 -42.640625 C 33.171875 -41.671875 32.710938 -40.726562 31.796875 -39.8125 C 22.210938 -29.851562 15.253906 -20.867188 10.921875 -12.859375 C 10.085938 -11.109375 9.671875 -9.816406 9.671875 -8.984375 C 9.671875 -8.148438 9.898438 -7.734375 10.359375 -7.734375 C 12.117188 -7.734375 15.921875 -10.265625 21.765625 -15.328125 C 27.617188 -20.398438 33.378906 -26.550781 39.046875 -33.78125 C 44.710938 -41.019531 47.773438 -47.082031 48.234375 -51.96875 C 48.234375 -53.53125 48.460938 -54.3125 48.921875 -54.3125 C 49.203125 -54.3125 49.523438 -53.945312 49.890625 -53.21875 C 51.921875 -49.894531 52.9375 -46.945312 52.9375 -44.375 C 52.9375 -39.488281 49.847656 -33.265625 43.671875 -25.703125 C 37.503906 -18.148438 30.523438 -11.585938 22.734375 -6.015625 C 14.953125 -0.441406 8.734375 2.34375 4.078125 2.34375 C -0.578125 2.34375 -2.90625 0.0390625 -2.90625 -4.5625 C -2.90625 -6.769531 -2.003906 -9.601562 -0.203125 -13.0625 C 1.585938 -16.519531 3.726562 -19.90625 6.21875 -23.21875 C 11.375 -29.945312 16.03125 -35.382812 20.1875 -39.53125 Z M 22.9375 -42.296875 "/></g></g></g><g fill="#ff604a" fill-opacity="1"><g transform="translate(340.776389, 135.648726)"><g><path d="M 42.84375 -41.734375 C 40.445312 -41.734375 36.390625 -39.269531 30.671875 -34.34375 C 24.960938 -29.414062 22.109375 -26.398438 22.109375 -25.296875 C 22.109375 -25.109375 22.25 -25.015625 22.53125 -25.015625 C 24.5625 -25.015625 28.59375 -27.269531 34.625 -31.78125 C 40.65625 -36.300781 43.671875 -39.390625 43.671875 -41.046875 C 43.671875 -41.503906 43.394531 -41.734375 42.84375 -41.734375 Z M 13.40625 2.484375 C 6.3125 2.484375 2.765625 -1.84375 2.765625 -10.5 C 2.765625 -15.9375 5.132812 -21.71875 9.875 -27.84375 C 14.625 -33.976562 20.222656 -39.003906 26.671875 -42.921875 C 33.117188 -46.835938 38.832031 -48.796875 43.8125 -48.796875 C 46.019531 -48.796875 48.066406 -47.914062 49.953125 -46.15625 C 51.847656 -44.40625 52.796875 -42.703125 52.796875 -41.046875 C 52.796875 -38.003906 50.628906 -34.570312 46.296875 -30.75 C 41.972656 -26.925781 37.4375 -23.835938 32.6875 -21.484375 C 27.945312 -19.140625 24.816406 -17.96875 23.296875 -17.96875 C 21.773438 -17.96875 20.644531 -18.660156 19.90625 -20.046875 C 19.53125 -20.316406 19.019531 -20.453125 18.375 -20.453125 C 17.738281 -20.453125 16.679688 -19.226562 15.203125 -16.78125 C 13.734375 -14.34375 13 -12.363281 13 -10.84375 C 13 -9.320312 13.550781 -8.378906 14.65625 -8.015625 C 21.65625 -8.015625 29.253906 -10.0625 37.453125 -14.15625 C 45.660156 -18.257812 56.992188 -25.472656 71.453125 -35.796875 C 72.472656 -36.535156 74.019531 -37.640625 76.09375 -39.109375 C 78.164062 -40.585938 79.382812 -41.460938 79.75 -41.734375 C 80.582031 -41.097656 81 -40.316406 81 -39.390625 C 81 -38.472656 80.582031 -37.644531 79.75 -36.90625 C 75.144531 -32.300781 69.175781 -27.140625 61.84375 -21.421875 C 54.519531 -15.710938 46.113281 -10.300781 36.625 -5.1875 C 27.132812 -0.0703125 19.394531 2.484375 13.40625 2.484375 Z M 13.40625 2.484375 "/></g></g></g><g fill="#ff604a" fill-opacity="1"><g transform="translate(391.082755, 135.648726)"><g/></g></g><g fill="#ff604a" fill-opacity="1"><g transform="translate(425.633806, 135.648726)"><g><path d="M 16.375 -10.09375 C 19.550781 -10.09375 22.5 -12.050781 25.21875 -15.96875 C 27.9375 -19.882812 29.847656 -23.84375 30.953125 -27.84375 C 32.066406 -31.851562 32.625 -35.054688 32.625 -37.453125 C 32.625 -38.097656 32.140625 -38.421875 31.171875 -38.421875 C 30.203125 -38.421875 29.070312 -37.914062 27.78125 -36.90625 L 9.671875 -22.9375 C 8.378906 -22.207031 6.90625 -21.84375 5.25 -21.84375 C 3.59375 -21.84375 2.765625 -22.441406 2.765625 -23.640625 C 2.765625 -24.460938 2.878906 -25.007812 3.109375 -25.28125 C 3.335938 -25.5625 4.003906 -26.023438 5.109375 -26.671875 C 11.929688 -31.367188 21.238281 -39.019531 33.03125 -49.625 C 34.414062 -51.46875 35.660156 -52.390625 36.765625 -52.390625 C 37.867188 -52.390625 39.710938 -52.039062 42.296875 -51.34375 C 44.878906 -50.65625 46.171875 -49.847656 46.171875 -48.921875 C 46.171875 -43.398438 45.660156 -38.378906 44.640625 -33.859375 C 43.628906 -29.347656 42.59375 -25.914062 41.53125 -23.5625 C 40.46875 -21.21875 39.9375 -19.953125 39.9375 -19.765625 C 39.9375 -19.578125 40.03125 -19.484375 40.21875 -19.484375 C 40.40625 -19.484375 40.773438 -19.625 41.328125 -19.90625 C 48.234375 -23.40625 57.035156 -29.117188 67.734375 -37.046875 L 71.046875 -39.53125 C 71.867188 -38.882812 72.28125 -38.097656 72.28125 -37.171875 C 72.28125 -36.253906 71.867188 -35.425781 71.046875 -34.6875 C 70.859375 -34.6875 68.484375 -32.75 63.921875 -28.875 C 59.359375 -25.007812 54.289062 -20.796875 48.71875 -16.234375 C 43.144531 -11.679688 37.175781 -7.515625 30.8125 -3.734375 C 24.457031 0.046875 19.53125 1.9375 16.03125 1.9375 C 7.375 1.9375 3.046875 -3.269531 3.046875 -13.6875 C 3.046875 -14.507812 3.390625 -15.265625 4.078125 -15.953125 C 4.765625 -16.648438 5.660156 -17 6.765625 -17 C 6.765625 -16.539062 7.019531 -15.828125 7.53125 -14.859375 C 8.039062 -13.890625 8.570312 -13.082031 9.125 -12.4375 C 10.78125 -10.875 13.195312 -10.09375 16.375 -10.09375 Z M 16.375 -10.09375 "/></g></g></g><g fill="#ff604a" fill-opacity="1"><g transform="translate(473.728937, 135.648726)"><g><path d="M 63.4375 -63.859375 L 70.484375 -64 C 79.609375 -64 86.242188 -62.707031 90.390625 -60.125 C 92.421875 -59.476562 93.4375 -58.648438 93.4375 -57.640625 C 93.4375 -56.898438 92.535156 -56.390625 90.734375 -56.109375 C 88.941406 -55.835938 82.722656 -55.125 72.078125 -53.96875 C 61.429688 -52.820312 54.128906 -52.15625 50.171875 -51.96875 C 48.421875 -51.875 44.390625 -48.832031 38.078125 -42.84375 C 31.765625 -36.851562 25.75 -30.265625 20.03125 -23.078125 C 14.320312 -15.890625 11.46875 -10.867188 11.46875 -8.015625 C 11.46875 -7.554688 11.695312 -7.164062 12.15625 -6.84375 C 12.625 -6.519531 13.203125 -6.359375 13.890625 -6.359375 C 14.578125 -6.359375 15.660156 -6.632812 17.140625 -7.1875 C 34.648438 -17.507812 51.648438 -28.796875 68.140625 -41.046875 C 68.972656 -40.398438 69.390625 -39.613281 69.390625 -38.6875 C 69.390625 -37.769531 68.925781 -36.875 68 -36 C 67.082031 -35.125 65.722656 -33.859375 63.921875 -32.203125 C 62.128906 -30.546875 58.789062 -27.550781 53.90625 -23.21875 C 49.019531 -18.882812 44.410156 -15.015625 40.078125 -11.609375 C 28.472656 -2.210938 20.363281 3.222656 15.75 4.703125 C 14.09375 5.160156 12.132812 5.390625 9.875 5.390625 C 7.625 5.390625 5.550781 4.238281 3.65625 1.9375 C 1.769531 -0.363281 0.828125 -3.492188 0.828125 -7.453125 C 0.828125 -11.421875 3.382812 -17.132812 8.5 -24.59375 C 13.613281 -32.0625 20.59375 -39.710938 29.4375 -47.546875 C 30.269531 -48.191406 30.6875 -48.789062 30.6875 -49.34375 C 30.6875 -49.894531 29.71875 -50.171875 27.78125 -50.171875 L 19.078125 -49.890625 C 6.816406 -49.890625 0.503906 -51.273438 0.140625 -54.046875 C -2.710938 -54.597656 -4.140625 -55.425781 -4.140625 -56.53125 C -4.140625 -56.894531 -3.957031 -57.097656 -3.59375 -57.140625 C -3.226562 -57.191406 -2.90625 -57.238281 -2.625 -57.28125 C -2.351562 -57.332031 -1.894531 -57.40625 -1.25 -57.5 C -0.601562 -57.59375 4.484375 -58.328125 14.015625 -59.703125 C 23.554688 -61.085938 34.410156 -62.242188 46.578125 -63.171875 L 56.109375 -75.875 C 56.671875 -76.988281 58.609375 -77.546875 61.921875 -77.546875 C 65.234375 -77.546875 66.890625 -76.851562 66.890625 -75.46875 C 66.890625 -75.007812 66.523438 -74.179688 65.796875 -72.984375 L 62.34375 -68.140625 C 61.875 -66.671875 61.59375 -65.566406 61.5 -64.828125 C 61.5 -64.179688 62.144531 -63.859375 63.4375 -63.859375 Z M 63.4375 -63.859375 "/></g></g></g><g fill="#ff604a" fill-opacity="1"><g transform="translate(516.986867, 135.648726)"><g><path d="M 36.484375 -12.296875 C 50.210938 -19.671875 65.328125 -29.484375 81.828125 -41.734375 C 82.648438 -41.097656 83.0625 -40.316406 83.0625 -39.390625 C 83.0625 -38.472656 82.601562 -37.597656 81.6875 -36.765625 C 80.769531 -35.929688 79.457031 -34.734375 77.75 -33.171875 C 76.039062 -31.609375 72.789062 -28.796875 68 -24.734375 C 63.207031 -20.679688 58.738281 -17 54.59375 -13.6875 C 43.71875 -4.925781 35.703125 0.234375 30.546875 1.796875 C 28.890625 2.253906 27.09375 2.484375 25.15625 2.484375 C 22.019531 2.484375 20.453125 0.0390625 20.453125 -4.84375 C 20.453125 -5.851562 20.890625 -7.367188 21.765625 -9.390625 C 22.640625 -11.421875 23.144531 -12.597656 23.28125 -12.921875 C 23.425781 -13.242188 23.546875 -13.492188 23.640625 -13.671875 C 23.734375 -13.859375 23.820312 -14.019531 23.90625 -14.15625 C 24 -14.300781 24.046875 -14.460938 24.046875 -14.640625 C 24.046875 -14.828125 23.769531 -14.921875 23.21875 -14.921875 C 22.757812 -14.921875 21.238281 -13.703125 18.65625 -11.265625 C 16.082031 -8.828125 13.941406 -6.867188 12.234375 -5.390625 C 10.523438 -3.910156 8.585938 -2.523438 6.421875 -1.234375 C 4.253906 0.046875 2.484375 0.6875 1.109375 0.6875 C -2.578125 0.6875 -4.421875 -1.015625 -4.421875 -4.421875 C -4.421875 -6.453125 -3.726562 -8.941406 -2.34375 -11.890625 C 0.875 -18.703125 5.707031 -25.519531 12.15625 -32.34375 C 18.613281 -39.164062 23.222656 -42.617188 25.984375 -42.703125 C 26.992188 -42.703125 27.914062 -42.332031 28.75 -41.59375 C 29.582031 -40.863281 30 -40.035156 30 -39.109375 C 30 -38.191406 29.078125 -36.8125 27.234375 -34.96875 C 25.390625 -33.125 23.0625 -30.75 20.25 -27.84375 C 17.4375 -24.945312 15.453125 -22.53125 14.296875 -20.59375 C 13.148438 -18.65625 12.578125 -17.363281 12.578125 -16.71875 C 12.578125 -16.070312 12.945312 -15.75 13.6875 -15.75 C 14.425781 -15.75 15.757812 -16.347656 17.6875 -17.546875 C 22.945312 -21.140625 28.960938 -25.5625 35.734375 -30.8125 C 42.503906 -36.070312 46.859375 -39.898438 48.796875 -42.296875 C 49.253906 -43.953125 50.632812 -44.78125 52.9375 -44.78125 C 57.363281 -44.78125 59.578125 -44 59.578125 -42.4375 C 59.578125 -41.789062 57.410156 -39.394531 53.078125 -35.25 C 40.085938 -22.8125 33.59375 -15.113281 33.59375 -12.15625 C 33.59375 -11.695312 33.796875 -11.46875 34.203125 -11.46875 C 34.617188 -11.46875 35.378906 -11.742188 36.484375 -12.296875 Z M 36.484375 -12.296875 "/></g></g></g><g fill="#ff604a" fill-opacity="1"><g transform="translate(572.821423, 135.648726)"><g><path d="M 10.921875 -11.609375 C 12.023438 -11.609375 15.410156 -13.863281 21.078125 -18.375 C 26.742188 -22.894531 32.15625 -27.410156 37.3125 -31.921875 L 44.921875 -38.703125 C 45.285156 -39.066406 45.46875 -39.316406 45.46875 -39.453125 C 45.46875 -39.597656 45.332031 -39.671875 45.0625 -39.671875 C 41.5625 -39.671875 37 -37.664062 31.375 -33.65625 C 25.75 -29.644531 20.882812 -25.40625 16.78125 -20.9375 C 12.6875 -16.46875 10.640625 -13.453125 10.640625 -11.890625 C 10.640625 -11.703125 10.734375 -11.609375 10.921875 -11.609375 Z M 34.828125 -9.53125 C 34.828125 -9.257812 35.125 -9.125 35.71875 -9.125 C 36.320312 -9.125 39.019531 -10.503906 43.8125 -13.265625 C 56.34375 -20.359375 71.085938 -29.847656 88.046875 -41.734375 C 88.878906 -41.097656 89.296875 -40.316406 89.296875 -39.390625 C 89.296875 -38.472656 88.832031 -37.597656 87.90625 -36.765625 C 86.988281 -35.929688 85.675781 -34.734375 83.96875 -33.171875 C 82.257812 -31.609375 79.007812 -28.796875 74.21875 -24.734375 C 69.425781 -20.679688 64.957031 -17 60.8125 -13.6875 C 49.9375 -4.925781 41.921875 0.234375 36.765625 1.796875 C 35.109375 2.253906 33.3125 2.484375 31.375 2.484375 C 29.53125 2.210938 27.847656 1.519531 26.328125 0.40625 C 24.804688 -0.695312 24.046875 -1.984375 24.046875 -3.453125 C 24.046875 -4.929688 24.390625 -7.117188 25.078125 -10.015625 C 25.773438 -12.921875 26.125 -14.488281 26.125 -14.71875 C 26.125 -14.945312 26.050781 -15.0625 25.90625 -15.0625 C 25.769531 -15.0625 25.519531 -14.878906 25.15625 -14.515625 C 23.957031 -13.222656 22.4375 -11.628906 20.59375 -9.734375 C 18.75 -7.847656 15.59375 -5.316406 11.125 -2.140625 C 6.65625 1.035156 3.039062 2.625 0.28125 2.625 C -0.1875 2.53125 -0.765625 2.367188 -1.453125 2.140625 C -2.140625 1.910156 -3.035156 1.148438 -4.140625 -0.140625 C -5.253906 -1.429688 -5.8125 -3.273438 -5.8125 -5.671875 C -5.8125 -8.066406 -4.015625 -11.726562 -0.421875 -16.65625 C 3.171875 -21.582031 7.546875 -26.414062 12.703125 -31.15625 C 17.867188 -35.90625 23.539062 -40.03125 29.71875 -43.53125 C 35.894531 -47.039062 41.285156 -48.796875 45.890625 -48.796875 C 47.546875 -48.796875 48.925781 -47.550781 50.03125 -45.0625 C 49.9375 -45.707031 52.929688 -49.875 59.015625 -57.5625 C 65.097656 -65.257812 72.304688 -73 80.640625 -80.78125 C 88.984375 -88.570312 95.457031 -92.46875 100.0625 -92.46875 C 101.632812 -92.46875 102.421875 -91.726562 102.421875 -90.25 C 102.421875 -87.945312 100.875 -84.816406 97.78125 -80.859375 C 94.695312 -76.898438 91.378906 -73.210938 87.828125 -69.796875 C 84.285156 -66.390625 79.703125 -62.109375 74.078125 -56.953125 C 61.085938 -45.148438 51.296875 -35.101562 44.703125 -26.8125 C 38.117188 -18.519531 34.828125 -12.757812 34.828125 -9.53125 Z M 34.828125 -9.53125 "/></g></g></g><g fill="#ff604a" fill-opacity="1"><g transform="translate(634.598763, 135.648726)"><g><path d="M 48.515625 -68.421875 C 49.429688 -68.421875 50.03125 -68.234375 50.3125 -67.859375 C 51.601562 -66.296875 52.25 -65.03125 52.25 -64.0625 C 52.25 -63.09375 51.972656 -62.265625 51.421875 -61.578125 C 50.867188 -60.890625 50.195312 -60.101562 49.40625 -59.21875 C 48.625 -58.34375 47.054688 -57.144531 44.703125 -55.625 C 42.359375 -54.113281 40.082031 -53.359375 37.875 -53.359375 C 36.21875 -53.628906 35.390625 -54.640625 35.390625 -56.390625 C 35.390625 -59.160156 37.046875 -61.859375 40.359375 -64.484375 C 43.671875 -67.109375 46.390625 -68.421875 48.515625 -68.421875 Z M 15.34375 -13.953125 C 14.601562 -12.671875 14.234375 -11.519531 14.234375 -10.5 C 14.234375 -9.488281 14.785156 -8.984375 15.890625 -8.984375 C 16.535156 -8.984375 17.644531 -9.257812 19.21875 -9.8125 C 36.445312 -18.84375 53.304688 -29.484375 69.796875 -41.734375 C 70.628906 -41.097656 71.046875 -40.316406 71.046875 -39.390625 C 71.046875 -38.472656 70.582031 -37.597656 69.65625 -36.765625 C 68.738281 -35.929688 67.425781 -34.734375 65.71875 -33.171875 C 64.019531 -31.609375 60.773438 -28.796875 55.984375 -24.734375 C 51.191406 -20.679688 46.722656 -17 42.578125 -13.6875 C 31.703125 -4.925781 23.679688 0.234375 18.515625 1.796875 C 16.859375 2.253906 15.0625 2.484375 13.125 2.484375 C 6.03125 2.484375 2.484375 -1.289062 2.484375 -8.84375 C 2.484375 -11.789062 4.09375 -16.003906 7.3125 -21.484375 C 10.539062 -26.972656 13.859375 -31.8125 17.265625 -36 C 20.679688 -40.195312 22.941406 -42.523438 24.046875 -42.984375 C 25.703125 -43.992188 27.5 -44.5 29.4375 -44.5 C 31.375 -44.5 33.21875 -44.132812 34.96875 -43.40625 C 35.519531 -43.125 35.796875 -42.753906 35.796875 -42.296875 C 35.796875 -41.835938 35.359375 -41.144531 34.484375 -40.21875 C 33.609375 -39.300781 32.269531 -37.875 30.46875 -35.9375 C 28.675781 -34 26.003906 -30.65625 22.453125 -25.90625 C 18.910156 -21.164062 16.539062 -17.179688 15.34375 -13.953125 Z M 15.34375 -13.953125 "/></g></g></g><g fill="#ff604a" fill-opacity="1"><g transform="translate(676.060051, 135.648726)"><g><path d="M 7.875 -6.078125 C 10.820312 -6.078125 14.460938 -8.007812 18.796875 -11.875 C 23.128906 -15.75 25.390625 -18.425781 25.578125 -19.90625 C 24.460938 -20.820312 23.285156 -22.5 22.046875 -24.9375 C 20.804688 -27.382812 20.140625 -28.609375 20.046875 -28.609375 C 17.179688 -25.941406 14.644531 -22.851562 12.4375 -19.34375 C 8.9375 -13.445312 7.1875 -9.394531 7.1875 -7.1875 C 7.1875 -6.445312 7.414062 -6.078125 7.875 -6.078125 Z M 37.734375 -39.9375 C 36.804688 -39.9375 34.890625 -38.507812 31.984375 -35.65625 C 29.085938 -32.800781 27.640625 -30.820312 27.640625 -29.71875 C 27.640625 -29.4375 27.914062 -28.878906 28.46875 -28.046875 C 29.019531 -27.222656 29.4375 -26.8125 29.71875 -26.8125 C 31.28125 -26.8125 33.050781 -28.695312 35.03125 -32.46875 C 37.019531 -36.25 38.015625 -38.4375 38.015625 -39.03125 C 38.015625 -39.632812 37.921875 -39.9375 37.734375 -39.9375 Z M 38.015625 -22.109375 C 40.585938 -22.109375 44.613281 -23.675781 50.09375 -26.8125 C 55.582031 -29.945312 60.398438 -33.082031 64.546875 -36.21875 L 70.765625 -41.046875 C 71.597656 -40.398438 72.015625 -39.613281 72.015625 -38.6875 C 72.015625 -37.769531 71.597656 -36.945312 70.765625 -36.21875 C 55.566406 -22.113281 44.050781 -15.0625 36.21875 -15.0625 C 35.664062 -15.0625 34.832031 -15.15625 33.71875 -15.34375 C 23.3125 -3.269531 14.375 2.765625 6.90625 2.765625 C 1.9375 2.023438 -1.191406 0.273438 -2.484375 -2.484375 C -3.222656 -3.867188 -3.59375 -5.617188 -3.59375 -7.734375 C -3.59375 -13.816406 -0.09375 -21.070312 6.90625 -29.5 C 13.914062 -37.9375 22.71875 -44.132812 33.3125 -48.09375 C 34.226562 -48.09375 34.914062 -47.882812 35.375 -47.46875 C 35.84375 -47.0625 36.257812 -46.832031 36.625 -46.78125 C 37 -46.738281 37.484375 -46.925781 38.078125 -47.34375 C 38.679688 -47.757812 39.488281 -47.988281 40.5 -48.03125 C 41.507812 -48.070312 42.566406 -47.492188 43.671875 -46.296875 C 45.148438 -45.097656 45.890625 -43.625 45.890625 -41.875 C 45.890625 -36.71875 43.265625 -30.128906 38.015625 -22.109375 Z M 38.015625 -22.109375 "/></g></g></g></g></g></svg>